<mxfile host="65bd71144e">
    <diagram id="ylWt6ZGr5WTJ9IE_JcPH" name="Page-1">
        <mxGraphModel dx="2930" dy="1943" grid="1" gridSize="10" guides="1" tooltips="1" connect="1" arrows="1" fold="1" page="1" pageScale="1" pageWidth="850" pageHeight="1100" math="0" shadow="0">
            <root>
                <mxCell id="0"/>
                <mxCell id="1" parent="0"/>
                <mxCell id="3" value="" style="rounded=0;whiteSpace=wrap;html=1;" vertex="1" parent="1">
                    <mxGeometry x="40" y="210" width="210" height="300" as="geometry"/>
                </mxCell>
                <mxCell id="7" value="" style="group" vertex="1" connectable="0" parent="1">
                    <mxGeometry x="49.5" y="335" width="191" height="60" as="geometry"/>
                </mxCell>
                <mxCell id="5" value="" style="rounded=0;whiteSpace=wrap;html=1;" vertex="1" parent="7">
                    <mxGeometry y="30" width="190" height="30" as="geometry"/>
                </mxCell>
                <mxCell id="6" value="Salário" style="text;html=1;strokeColor=none;fillColor=none;align=left;verticalAlign=middle;whiteSpace=wrap;rounded=0;" vertex="1" parent="7">
                    <mxGeometry width="60" height="30" as="geometry"/>
                </mxCell>
                <mxCell id="8" value="" style="group" vertex="1" connectable="0" parent="1">
                    <mxGeometry x="49.5" y="265" width="191" height="60" as="geometry"/>
                </mxCell>
                <mxCell id="9" value="" style="rounded=0;whiteSpace=wrap;html=1;" vertex="1" parent="8">
                    <mxGeometry y="30" width="190" height="30" as="geometry"/>
                </mxCell>
                <mxCell id="10" value="CPF" style="text;html=1;strokeColor=none;fillColor=none;align=left;verticalAlign=middle;whiteSpace=wrap;rounded=0;" vertex="1" parent="8">
                    <mxGeometry width="60" height="30" as="geometry"/>
                </mxCell>
                <mxCell id="11" value="Criar conta" style="rounded=0;whiteSpace=wrap;html=1;fillColor=#EDEDED;fontColor=#000000;" vertex="1" parent="1">
                    <mxGeometry x="49.5" y="415" width="190" height="40" as="geometry"/>
                </mxCell>
                <mxCell id="12" value="Criar conta" style="text;html=1;strokeColor=none;fillColor=none;align=left;verticalAlign=middle;whiteSpace=wrap;rounded=0;fontColor=#FFFFFF;fontStyle=1" vertex="1" parent="1">
                    <mxGeometry x="49.5" y="220" width="110.5" height="30" as="geometry"/>
                </mxCell>
                <mxCell id="13" value="" style="rounded=0;whiteSpace=wrap;html=1;" vertex="1" parent="1">
                    <mxGeometry x="310" y="210" width="210" height="300" as="geometry"/>
                </mxCell>
                <mxCell id="20" value="DEPOSITAR" style="rounded=0;whiteSpace=wrap;html=1;fillColor=#EDEDED;fontColor=#000000;" vertex="1" parent="1">
                    <mxGeometry x="320" y="350" width="190" height="30" as="geometry"/>
                </mxCell>
                <mxCell id="21" value="Home" style="text;html=1;strokeColor=none;fillColor=none;align=left;verticalAlign=middle;whiteSpace=wrap;rounded=0;fontColor=#FFFFFF;fontStyle=1" vertex="1" parent="1">
                    <mxGeometry x="319.5" y="220" width="110.5" height="30" as="geometry"/>
                </mxCell>
                <mxCell id="22" value="SAQUE" style="rounded=0;whiteSpace=wrap;html=1;fillColor=#EDEDED;fontColor=#000000;" vertex="1" parent="1">
                    <mxGeometry x="320" y="385" width="190" height="30" as="geometry"/>
                </mxCell>
                <mxCell id="23" value="TRANSFERÊNCIA" style="rounded=0;whiteSpace=wrap;html=1;fillColor=#EDEDED;fontColor=#000000;" vertex="1" parent="1">
                    <mxGeometry x="320" y="420" width="190" height="30" as="geometry"/>
                </mxCell>
                <mxCell id="25" value="EXTRATO" style="rounded=0;whiteSpace=wrap;html=1;fillColor=#EDEDED;fontColor=#000000;" vertex="1" parent="1">
                    <mxGeometry x="319.5" y="455" width="190" height="30" as="geometry"/>
                </mxCell>
                <mxCell id="30" value="" style="group" vertex="1" connectable="0" parent="1">
                    <mxGeometry x="362.25" y="240" width="105.5" height="50" as="geometry"/>
                </mxCell>
                <mxCell id="26" value="Saldo" style="text;html=1;strokeColor=none;fillColor=none;align=center;verticalAlign=middle;whiteSpace=wrap;rounded=0;fontColor=#FFFFFF;" vertex="1" parent="30">
                    <mxGeometry x="22.25" width="60" height="30" as="geometry"/>
                </mxCell>
                <mxCell id="27" value="R$ 290,00" style="text;html=1;strokeColor=none;fillColor=none;align=center;verticalAlign=middle;whiteSpace=wrap;rounded=0;fontColor=#FFFFFF;fontSize=20;fontStyle=1" vertex="1" parent="30">
                    <mxGeometry y="20" width="105.5" height="30" as="geometry"/>
                </mxCell>
                <mxCell id="31" value="" style="group" vertex="1" connectable="0" parent="1">
                    <mxGeometry x="362.25" y="290" width="105.5" height="50" as="geometry"/>
                </mxCell>
                <mxCell id="28" value="Limite" style="text;html=1;strokeColor=none;fillColor=none;align=center;verticalAlign=middle;whiteSpace=wrap;rounded=0;fontColor=#FFFFFF;" vertex="1" parent="31">
                    <mxGeometry x="22.25" width="60" height="30" as="geometry"/>
                </mxCell>
                <mxCell id="29" value="R$ 290,00" style="text;html=1;strokeColor=none;fillColor=none;align=center;verticalAlign=middle;whiteSpace=wrap;rounded=0;fontColor=#FFFFFF;fontSize=20;fontStyle=1" vertex="1" parent="31">
                    <mxGeometry y="20" width="105.5" height="30" as="geometry"/>
                </mxCell>
                <mxCell id="32" value="" style="rounded=0;whiteSpace=wrap;html=1;" vertex="1" parent="1">
                    <mxGeometry x="620" y="210" width="210" height="300" as="geometry"/>
                </mxCell>
                <mxCell id="36" value="" style="group" vertex="1" connectable="0" parent="1">
                    <mxGeometry x="629.5" y="265" width="191" height="60" as="geometry"/>
                </mxCell>
                <mxCell id="37" value="" style="rounded=0;whiteSpace=wrap;html=1;" vertex="1" parent="36">
                    <mxGeometry y="30" width="190" height="30" as="geometry"/>
                </mxCell>
                <mxCell id="38" value="Valor" style="text;html=1;strokeColor=none;fillColor=none;align=left;verticalAlign=middle;whiteSpace=wrap;rounded=0;" vertex="1" parent="36">
                    <mxGeometry width="60" height="30" as="geometry"/>
                </mxCell>
                <mxCell id="39" value="Depositar" style="rounded=0;whiteSpace=wrap;html=1;fillColor=#EDEDED;fontColor=#000000;" vertex="1" parent="1">
                    <mxGeometry x="629.5" y="345" width="190" height="40" as="geometry"/>
                </mxCell>
                <mxCell id="40" value="Depositar" style="text;html=1;strokeColor=none;fillColor=none;align=left;verticalAlign=middle;whiteSpace=wrap;rounded=0;fontColor=#FFFFFF;fontStyle=1" vertex="1" parent="1">
                    <mxGeometry x="629.5" y="220" width="110.5" height="30" as="geometry"/>
                </mxCell>
                <mxCell id="47" value="" style="rounded=0;whiteSpace=wrap;html=1;" vertex="1" parent="1">
                    <mxGeometry x="620" y="540" width="210" height="300" as="geometry"/>
                </mxCell>
                <mxCell id="48" value="" style="group" vertex="1" connectable="0" parent="1">
                    <mxGeometry x="629.5" y="650" width="191" height="60" as="geometry"/>
                </mxCell>
                <mxCell id="49" value="" style="rounded=0;whiteSpace=wrap;html=1;" vertex="1" parent="48">
                    <mxGeometry y="30" width="190" height="30" as="geometry"/>
                </mxCell>
                <mxCell id="50" value="Valor" style="text;html=1;strokeColor=none;fillColor=none;align=left;verticalAlign=middle;whiteSpace=wrap;rounded=0;" vertex="1" parent="48">
                    <mxGeometry width="60" height="30" as="geometry"/>
                </mxCell>
                <mxCell id="51" value="Transferir" style="rounded=0;whiteSpace=wrap;html=1;fillColor=#EDEDED;fontColor=#000000;" vertex="1" parent="1">
                    <mxGeometry x="629.5" y="740" width="190" height="40" as="geometry"/>
                </mxCell>
                <mxCell id="52" value="Transferir" style="text;html=1;strokeColor=none;fillColor=none;align=left;verticalAlign=middle;whiteSpace=wrap;rounded=0;fontColor=#FFFFFF;fontStyle=1" vertex="1" parent="1">
                    <mxGeometry x="629.5" y="550" width="110.5" height="30" as="geometry"/>
                </mxCell>
                <mxCell id="53" value="" style="group" vertex="1" connectable="0" parent="1">
                    <mxGeometry x="630" y="590" width="191" height="60" as="geometry"/>
                </mxCell>
                <mxCell id="54" value="" style="rounded=0;whiteSpace=wrap;html=1;" vertex="1" parent="53">
                    <mxGeometry y="30" width="190" height="30" as="geometry"/>
                </mxCell>
                <mxCell id="55" value="Número da conta" style="text;html=1;strokeColor=none;fillColor=none;align=left;verticalAlign=middle;whiteSpace=wrap;rounded=0;" vertex="1" parent="53">
                    <mxGeometry width="120" height="30" as="geometry"/>
                </mxCell>
                <mxCell id="56" value="" style="rounded=0;whiteSpace=wrap;html=1;" vertex="1" parent="1">
                    <mxGeometry x="619.5" y="860" width="210" height="300" as="geometry"/>
                </mxCell>
                <mxCell id="57" value="" style="group" vertex="1" connectable="0" parent="1">
                    <mxGeometry x="629" y="970" width="191" height="60" as="geometry"/>
                </mxCell>
                <mxCell id="58" value="" style="rounded=0;whiteSpace=wrap;html=1;" vertex="1" parent="57">
                    <mxGeometry y="30" width="190" height="30" as="geometry"/>
                </mxCell>
                <mxCell id="59" value="Data fim" style="text;html=1;strokeColor=none;fillColor=none;align=left;verticalAlign=middle;whiteSpace=wrap;rounded=0;" vertex="1" parent="57">
                    <mxGeometry width="60" height="30" as="geometry"/>
                </mxCell>
                <mxCell id="60" value="Consultar extrato" style="rounded=0;whiteSpace=wrap;html=1;fillColor=#EDEDED;fontColor=#000000;" vertex="1" parent="1">
                    <mxGeometry x="629" y="1060" width="190" height="40" as="geometry"/>
                </mxCell>
                <mxCell id="61" value="Extrato" style="text;html=1;strokeColor=none;fillColor=none;align=left;verticalAlign=middle;whiteSpace=wrap;rounded=0;fontColor=#FFFFFF;fontStyle=1" vertex="1" parent="1">
                    <mxGeometry x="629" y="870" width="110.5" height="30" as="geometry"/>
                </mxCell>
                <mxCell id="62" value="" style="group" vertex="1" connectable="0" parent="1">
                    <mxGeometry x="629.5" y="910" width="191" height="60" as="geometry"/>
                </mxCell>
                <mxCell id="63" value="" style="rounded=0;whiteSpace=wrap;html=1;" vertex="1" parent="62">
                    <mxGeometry y="30" width="190" height="30" as="geometry"/>
                </mxCell>
                <mxCell id="64" value="Data início" style="text;html=1;strokeColor=none;fillColor=none;align=left;verticalAlign=middle;whiteSpace=wrap;rounded=0;" vertex="1" parent="62">
                    <mxGeometry width="120" height="30" as="geometry"/>
                </mxCell>
                <mxCell id="65" value="" style="rounded=0;whiteSpace=wrap;html=1;" vertex="1" parent="1">
                    <mxGeometry x="860" y="860" width="210" height="300" as="geometry"/>
                </mxCell>
                <mxCell id="70" value="Extrato (intervalo)&lt;br&gt;" style="text;html=1;strokeColor=none;fillColor=none;align=left;verticalAlign=middle;whiteSpace=wrap;rounded=0;fontColor=#FFFFFF;fontStyle=1" vertex="1" parent="1">
                    <mxGeometry x="869.5" y="870" width="110.5" height="30" as="geometry"/>
                </mxCell>
                <mxCell id="74" value="Data/hora | Tipo de operação | Origem/Destino | Valor" style="text;html=1;strokeColor=none;fillColor=none;align=center;verticalAlign=middle;whiteSpace=wrap;rounded=0;fontSize=12;fontColor=#FFFFFF;" vertex="1" parent="1">
                    <mxGeometry x="860" y="925" width="210" height="30" as="geometry"/>
                </mxCell>
                <mxCell id="83" value="" style="shape=image;verticalLabelPosition=bottom;labelBackgroundColor=#ffffff;verticalAlign=top;aspect=fixed;imageAspect=0;image=data:image/png,iVBORw0KGgoAAAANSUhEUgAAAggAAABqCAYAAADZX6kbAAAAAXNSR0IArs4c6QAAIABJREFUeF7s3QO0JEG2NeCcN7Y988a2/d7Ytm3beGPbtm3btm3b/teXs3ZP/DkZibpV997uzlirV3dXZWVGHOyzz8mMkwf45z//+c9mLx9//vOfm5Of/OTNYx7zmOZiF7vYXr6aZfp7swQucYlLNFe84hWba1zjGnvzMpa5LxJYJLBIoDnAvkAQfv3rXzdPeMITmjve8Y7NAQ94wEWtiwR2RAJ///vfm3vd617NbW5zm+aIRzzijsxhuegigUUCiwTWJYF9giCsSxjLeRYJLBJYJLBIYJHAIoF/SWAhCIslLBJYJLBIYJHAIoFFAv8hgYUgLEaxSGCRwCKBRQKLBBYJbD9B+N3vftf86Ec/2nPhAx3oQM0xjnGM5iAHOUj72c9//vPml7/85X9M7MhHPnJz2MMedpbKfv/73zef//znmz/+8Y/N0Y52tOYkJznJrN+v4+Af/vCHzete97rmZCc7WXPOc55zHaf8j3M85SlPaT+71rWu1Rz0oAfdyDX29pP+4x//aD772c+2tnWsYx2rOcEJTtAc4AAHmLWsH/zgB82nP/3p5iIXuUjj33/961+b4xznOLPOsRsOfstb3tKc7nSna/jU3jY8Q/3a1762Of3pT9/qcRn7jgQ8O/a+971vebB8F6t04xWEF7zgBc3Vrna1/08EHP01r3lNC1p3utOdmoc85CH/ISI7Em5xi1tMEh0QQQwudalLNd/4xjf2/OYUpzhF87GPfaw52MEONuk86zjo3e9+d3O+852vueENb9g+OHnxi1+88dlHPvKRljRsdVjrf/3Xf+0hV0c4whG2espJvz//+c/ffPjDH155HW9+85uby1/+8s21r33t5rGPfeyka656EOC57nWv27zzne9sCRTiyM7ufOc7z3qI9R3veEfz8Ic/vHn961/f3OUud2lJwrOf/ezZ0/rud7/bXPCCF2wJC4K83ePSl750c7e73a0505nOtN2X3vL1EL1zn/vczd3vfvdWhsv4lwQQ3wtc4ALNS17ykub4xz/+XimWr371q82Nb3zj5u1vf3vrV9/61rfah3z3tXH961+/OeMZz9iudc6QaN7vfvdrPvCBD+zB/Dm/X8ex20YQznWuczU3uclNmpe+9KXNK1/5yua0pz1tu3CgKUszALknwI3nP//5zVWvetXmk5/8ZPOXv/ylPb6WLX/nO99pwe8nP/lJc81rXrMNRG94wxsamfavfvWr5tCHPnTzuc99rg1whzzkIZsLX/jCzeEOd7hGsP3Upz7V/O1vf2uDN4U49kIXutAeIP/iF7/YBkXZ5xnOcIYG6fjSl77UVj5srTz84Q/fkhNB6TSnOU1LSEIQHvCABzT/+7//23zmM59pnvWsZ7UVDedwvq985SuN7ZnHPe5xm/Oc5zyjlYBf/OIXLamSBSIdhjkgCOQjmH39619vTnnKU7bXHBrk/KY3van52c9+1s6H8fr3l7/85eZQhzpUuw6y+dCHPtT+fYhDHKIleV/4whdaR/b9CU94wlZ2hznMYdo1uLbP3//+9zcc35wcY20IzSMf+cjmtre9bZstCLaOdS0VF+SBfM3bubY6bn3rWzcf/ehHmxe/+MXNkY50pEaAtv3wdre7XXODG9ygenqg+573vKeV6TnOcY7mXe961x6CQDZ/+MMfWlJrsDXApqJw9rOfvf0MgbDWH//4xw27ueQlL9nKznlc/21ve1tLVunIMEe26/dD2bFzqYC4nt/zpRAN8uNHxzzmMZszn/nMe4Dkt7/9bXu8St3jH//45v/+7/9aH6FP/saGZeUnPvGJJ4nb79gsf7VT6H/+539Gd2p87WtfazNENka/fIyM/TnRiU7UXtc8jnrUo7b+6Hh++qc//akNfnTXJQixy29/+9utDZE3vyJHtug8dpOwVTIjf79573vf23z/+9/fc17Xdow5CUywRWWzO9gOzJB4+Dfs4LdvfetbW1stSZfv2c+pT33q5lSnOlV7Kn77m9/8pv3NJz7xieaiF71oqxNJA5kgPalskQsbsQPmvOc97x4fT4WVvficvMgJzkhCrBMWsQn4QxZnPetZZ1dc6BaWsf1jH/vY7fXZ/cc//vHWtviz4fzkbm30Zx7ZtaN6SzZshO+TPzzgJ9atCkfufIBMBU0E/B73uEfrP3z06Ec/els9zlr++7//u7U3Q0Wa7unceeng4Ac/+H/oDf7QBT84y1nOske3cBpWmpekxzxVuPl2iBZ/40/sqTasG/6RO33DVLKyLutkc2KX71Ug2arYZL7mQF5s+3vf+14rG7bBDk960pO28zUe9ahHtckz3IdJ5seW4AmbVKHedAW5ShAI+ElPelJrHAxm1XJ2KggCzPOe97xW6ZxKoBUoKSrjGc94RnO9612vDVgf/OAHW4MncAok7BhtV2nmiXwAFeXUDIYq+yDou971ri14UKTA9MIXvrAVMJBkqIyMI3JWgV3Gee9737t54AMf2CqTITFggOxar3jFK1rD5vBAAxhbDwWGIFzucpdryQbAck3kAwAwKE6AmAgmzoGc1AZZCDAIgTUgPYb/m5drMFiGxvkue9nLtoG8r3ICsK985Su3Ds6Qv/nNb7ZB0FwFKrImG/ImB2sDSHRnHdZAP35DdgyXM1gPW+FYdGptzkUnDFwgAqCu6XvZvbne6EY32hPsBIZnPvOZ7fy2MgAm3XC2jHve857tNTlX31ZYtqJixS6RJcTvlre85R6CwBYAEjnQFfsgB0HTdZBR2Y+Mjp0CQs4vGLs2ICdLoPPkJz+5JcLkIQgC/pe//OV7iEN37YCZ3N02A46Ix4Me9KBWR1e5ylVaewLaQFzlDQDlWmwAUPIL8wXEbADoui7fYD9jA4DyYf7hj3UhmQka3d8/9alPbe5///u3czLnn/70p+182RbfiZ+a0x3ucId2TWycn7BNpIfd+L6sINzqVrdqAV5gF9DoybECDcCXHAhccCO3+q5whSu0tsuPzcH1BRj+IpDTk9+pUnTHzW52s9ZujnKUo7Skl+2SL3uXcDz60Y9u7RUZFdxgCptQzSRr67X9mk3CM/7uXPBGMCZTfobAwBUElF3QN1t60Yte1Nqa+QoGdMbPyM/1zna2s7XrUpVDws1VEBJwnvOc5+whr0P6RV5ufvObt+dG3PyWjNgNPfIJxJ8dy4b5LNnSvSBH3mQRfxcMyVtiJGgKkPzavMhasseX+Bm9SZ4kPYI/vdEXXHnwgx/cyhk+S4wkljBWRYw82ORzn/vcXr9BpNg+OZOn35mP+cMi9gi32NgjHvGI1i4krwZ/euhDH1r1Cz7jWOuHzfRD364Je+mdLSUxdD7rcbwkCRawIYSV/bIBdmKtyInjxUKYLF6IJ/RMVkgXOVq79cGNAx/4wGPuu/L3VYLAGO573/vuObEgzDDmjhAEAmLIDMO4z33u0woyA6ACLQ70xje+cY9yOHAIQi3LUs5nyMqoSjLlwMqOd7zjtR8xirBrjuw6gpzAL3BghErgmBqDyTMQAFXwFHSAFbI0hSAwBAp1bmDG+CkWqwUS5obpmxfwqZWfGYrrWSMCVd5iEMRUWwQ4hsR5GBVnx167A4gCmKyPXqwT6UB+GLEswPB78xYQrJ8zZB0yGLoBZFe/+tXbbEUJH8li9PRIVkBAMPEHCJj/0572tD3n5ySA0vWdz9pcP8+olPOXYSJFBvlFr+UxgEnQ7T7XwqHZHKDoZhzIjKycXlMGRCSBXm4xlAQBwxcY/O06ZEaeAj9ZCYzWzY7YmMwU8NMzZ371q1/dgrlA53hzoz/67RuCoQBiXQgdAAaaKi5IicZMhnm4Hl8lJ8Br5BYD+1KVQ9IFOvYO3EpSPebfCQgaQQFEwb07+DJdWg+5up45DhGEK13pSu1pgLa5O79AQpYhCGwQuAsy7MT6ELMhguBc7E2gNQRV8xNQEQQ6ELxrA0GgO4FFIEQG2T77gzeCgGckEBmBA66wZ79xHD/ku4CcjdPdE5/4xDYpQABUdwR1QZTt0ZX5IYOCsiqedao4sG1+xnb4sWvwdcGSb9CHv/kOnaqkIeFjQ3JBT+SKhNAxbIJX5AOjVAjNEfkRB1yDDOlLUmCdrslPBDk+5jv2DQOHCILk6nGPe1xr04J1ht+TBTmotIgd5khGiEet1wh/ph9VvmCqNZkHO7zpTW/aXkKiiugIxlMJAvnSNRykC3hOF7BR0Be8kXdYww4kdJe5zGXaJPv2t799e122Lu7wve5a2TIc4pt0i1ySPXsnd2tGKA3X5SeO39SoEgSgxHAyBE5KnjtCEIBkyvGAtbyvQnmUBmCBAKNM6YSyjaF7t6oDMn0CBI7lkOUwbMYgOCAbnDTZBEUJ2AwOUQCy2KoAd53rXKfNxBm5ucuGMD1BjtMDBkGvVkHoIwgcjCwFzGQjnEBQrD0r4bp+x2iAWkkQALF5c1gyci5/Y/8MuTtSmnMt60JMDOAn2DNiQdEAYNi8USMIPufABqYuo5WBIB0cxnWsFZB2CQI5cyCExbXJQxXBWlOCLucPRARtg7N7zqBvAFcAV8pTIGEb7K4rZ9ckR2BRPthaPoNQEgTERNk8JAbws13Abw2yBwQDcCIDiG9JEACIwACUDTpAJvqexfG9DI4+2SzQY79uy7Bpn6ckiSCqgjzsYQ9rs4/crgtBADQCnqoOG+JbgHzKcxWyO7q1VhkO0uv/fVk3ebJTdqlaM4UgCAD8wvqcX2AEgDK5EAR6Qxis3ZhCENxq5LNkZvB1xEPyI9iXGNdnS+Qle0OC2bOgyZ4R65BHdkLHbI5c6Z798wsBxRyQeMHE2uCC9ZIhkoH8sQ/2wh8MxIaN+A65yZqtA8lBMEqCwHbJRjJD5oI03ODXYxmm3z796U9vM/QM5IaNS6hUEA06VQ2Csyo9wQnzkIlbO2xM6V9VBulBXOYSBHMhG4QQTvg9XcFvAZEtDw1zhM981W1NmTs/oZckmmSMxKoKTiUIIXOwLP6PyLAxg0zcQqVz9mv0EQRyyjM11oZswQBJgESUjSFOJUGgT+tIhZVs2Qs82dSoEgSZgcWmE/OchwbLyZa3GIBsjJaDCuyMihP5HFEQqGOQzgPsODXB1HY1YNdAT/kWIBM0w1Y2E1RShnMdBo7lCwgcuyQIwAkDZJCCHZBybX9ToNsHSlocSknRfV0kgsIw6O4tBkDASCgaG8TEOT3myPiBa0rvQwSBg2GoDEewEAADIoArWSPHQRCsM2XpruEISoiGc5kPMAMmAr2sl2w4H73n9gCA8XkyGrLD9v1dEgTytj66YrQyXE7N2DFujgo0yNA5kVAyJTegxnE5HXIWoFzF8MncOsnXeWVeStiyCtlCdzeDAA08VJ/Sqpve6bSvgiDAsIcEeIHWOVXEQhAEA4D/qle9qgVWIKpa4nvrR1jYLfsn69z66ltvSRDohj3nfieAEyycgy3LlmUYiI6/fQ7M2KprAE4BGyEzfOZ+ZrJGRL6PqJqrChEbMGfkwLz6CIKSNYInuFm7oOX+a0AYmaJz1yQXvuA4RIZ/sgEAipSXBIFvyr7Mn14RPmV0pI/tCd5AMyQDSCObKjT+hFhnzVslCLJdWABH+AJdq0bAnlSV+FqNIJApDCQnJMgaUg1is4b1lQSBvBA/dsoOndu1XQcOIeLkR090ZC7s09/sse+eNYKuQoJ85zkB/u38ZE3PgikfgS1dgoBIWDsCi3AiJcibtSELdOl2AftUAXM8O84tBvhIl0gJvDasT9ledRjxIs+pBIFd8Wl/OzeMlrSQBxnl4XdyYRNijAqeCojfWK8KYd+tN1jmeQhyzo4m2G3dSDRfS/LF5hApZN3a2bnBhkMQzFN1gUzpIPHJdZARZJDMJX1uRTiPzwznlSixG9VJdr2OZ7hKDKoSBFmA8iXmaiKYzCoPRHSfQSBYmQ8H5xiMRSCRCTEG4FGOKc8gUDRwEfQEHoBHaYIlY3Ve2TB25jOZAMLj8xpBYKwcCkgJVoxUEAA4ArL7ha4Vw2BofQRBsFQSBMjOpfQkU0JmGA9GzCiHCAKgZ1zWxYFTPue0wBjQ0Zd5Ohd5AGWG3h3YqszbuVzfsX6DENELsgCUyRKAIR2Cqr8FNmtQmYjDlwRBBq0SZG0CIQCwbsbu32RNZs7BGYEf2fi/QGZdfbeJ5pIEZEzQRJ4EUxkCoFJurREPt9TMh82TgQDsfncfQXCMQCxTIHflY2CAEPYRBEQI2AInmSbAQoiRQ74FzHPPtW+tgg4fkT3yD7bOJl72spe1ZEz1TKAALvzI+RAiPgv8ZVLsgfwBCh8ASNELvVovWbHzvoezyI99IEGOkXEKAH0EgS5dXzCQPcmeDQQB6QKiyIYSrEzR925nsSXkmc8iPvyzJAgIKzm6Vytg0KvfIQgIF31Ys2wWqXctIA5jBLfcqvNbZHCdBIEsJA2qQCoy/CkPyk4hCHyHXZELH6FbvtqtIIQgqOzRp7UJMIi3z5BgMjcfpJDfCvKCHb2FGJZ2Bg+dl1+TEfLrdgmfgEsCKtxiH+ZZIwhihUxa1cXaBXu3BFQ2YKYAHVuDXSVBQHD4rDnL+p2HffBhcqXPqQRBlUvVmP3ANphi7ezC3P1fEEdqxCf2g8CSPZJEX4hfH0FIsoHsk4vzmpf5smvEnD8iEfSCaEi2nVN1ls74bgiC86WSQIfsXrDnm3xSskP2Aj/90BN5SqJgkHgEc+hNfOvGz7nY2T1+47sYgDLFCFYeQjIwYoJVKSBUYGNgSN0HEX2HmQlqfcadBQElQY0zMBAgAlQBg2wQmBAmw/A55fsNpivIMiZZH5AXPBkSw6R8v8eOOZ4SIaVyFMwuT7VTGGfECBkLIKN4rM4aMHgKxPb8H3gmsAsyjKd2GyUP75k/QOB0hnuM1kPGDFpJF4kjaw/LIADdYc0cQnlTpuUY5zRfQU4AJQsOjBiYE9mTAeCT8XMCegNgsn5ObJAL+ckOADdCRaYCIt2xg9wiEHwRA7dqgIl5ka0guo5tqQie9Qg2smLn7XtmIfJBlACGuZgr3anUmC/gFXSdiw07lq0hhIbALSA6FrgLdIKwago9sGmECOGyZmsHAuyE3WRnSt8zI85P3tGJ6hg/QUzJ2xrZPL2xv/iPz82ZjQGQrMcagCJ7VJEDQHxEVsIPksF17ca1BHKZGJ3zB/PKDo7u8cCfb/Fdfi7QIwh8CxFTUWKnAFwlRsUBiSdT+vIba0FozBfYAklBAyHL9lVkkD0LcnyS3fJJti0gOQ9yQ7f8w9zpEDkDxkO7WqxJZmk+5ko+fJc/sFG2AgNch53DGL5ons5rrf7PH1yTTfApumCLSASboE/271p05ji2APT9FmFNZYFMBQqJk6DKf9icZ5HMwfdkwCbZvO9gDhuo3cKyTnhErp5DQmjzW+uFO0iVIIo8um0rUclOC9c0VwQfsYFPsE6mjNzSBVyAY2wN9kuwkA+kIiVzshEUYQv5IH3w03rJikz9n+8NPQ/HP52L7MxTNUK11IB7/pgLG4BdcMoa6AoO+i466guw5s13E09Uf+iLXUv+rD23lshePDIfPs9H2SP9JNsP4aY//gQT2Ji5u46kmgzgEBvJ7iSEAmayF3KGP+LeOsfGCcI6J7uca5HA/iiB8hbDJtYPUAEL4FXZWPcon0GY2/xsaC7lMwjrnvO+cj66RbQQqb6K4r6yzv15HXSr6uP2+rrHQhDWLdHlfIsE1iwBpcRUDdZ86vZ0goiSpmxk7IG2Va7vNppbCbKiVW5T1q6pCiGLXl6tXdcK3ZKT5xR2oknXKvay/GaeBPgXPW+i0+hCEObpYjl6kcAigUUCiwQWCewXElgIwn6h5mWRiwQWCSwSWCSwSGCeBBaCME9ey9EbkoCHo/xR5l5KoRsS8nLaRQKLBBYJzJDAxgmCp6XT5WtoXp6OtmvAk8K2umxlH/yM9U8+1C4DT872NfCZfJItHuhpZk852y9bG54at+NgXU+z0oetfvaXr/JiKPrPk+VDy/e0v6eKbRHqe+uiXQB708t62LwnzG27q41swy37fmzRRNpth6451Ee+dg1P0nuS3UNPdvrYXeHp777dMFudp/vidjoYdmTYjrgum93q3Jbf/1sCdn7YOjmHtMMguxaGbH/dMuZLcMpOh1qHRde0PdH29amDPzif3UB2Itg+ulPDjh/9ZfTB6Hv/xCbmtXGCYOuPvaC2BA0FNU9PC3wa8tjCU76jYRMLn3tOfRsEKd3qdmrYS2vrnKfNa8NWRE1HNFZax0jnOdtrVnlrnH3PSE23w2U5N06LgNlGl2Y23bnbRjSlbew61ryOc2ieY4vT0JwRPvv+bf9c10DibPHse/HQ2DVsubNNy1Y1W/RsP/Pv2vsWxs439L1eDpICYG27mO3BbNtWumXsHgnYlsgGau/B6ZupbY22QLLD7Rq2HqZx1FDrbFtzbaWcMpwTabVFFlnWuAnx36nhQUTz19tkuxLojRMEAGlBnjS2T9MeU3uZ9Rewr9MeaIFBg5281AQw2R8rIAI6mTuB2NdqD66sxrkch+HZx+8c9s5qQGE/KvDVWMUeWNe0JQoQGVojy0bt7RbAZK6CLhIA1DFmw55sPRtkUBqr5H0H9vvac21fq/3N2Q88ZDjK5/Zdcx4Zoye6pzBZRuFajFpmrcNZWnF6Mtz5BO7sv9VzAJHRQAfrJQMd32QCeTHI2Bv8MFXNdXTysnbzRjhcx55dMlMVIFvnHxrmrYrgODrVY8C5nIdNIIaqFKpHCQ50Zx8/vclk/RbxsTaDTdkbb572X9P/2NBoRSCWJXsfQd62V/udvcfmQNcAh77GtujpEUFWGhYZMnFzpTM2KWP2pDEiTK4a49iaJOuxJ5pdOy5Zmz3aQ70bMndytTYgbq97CALbsAOCnep3oBFNX3XGediZeZATH9LXwb/9bT+286ieIRH8w64Kvpe3Vo7ZQVfOzov0yYjyNlL75tmW72SEfBaJAPzkT35kml0L9sSTt7mQp+PhChC1BjsmBDfNqfhuOkmqXvi//f6wpSYTc4YR/E3DIlkbGWZPvbmmGRPZsW12yb/o3BrSI6TPzqwFkUTCJUX2yOflWrJw++XZErkI1PbHw6O0aYZjAlj28FuPecj2/c789L1w204fBUmXLadkYs1kSqfsDZ7yQ/q1r981/Zuv8DvYAWPM15odq+mPHhBpOSwZ1JOCHcLjEIQ0jKIj52DrfDfN2MyL/YgFfIgPkPNYQpJz6AtA9no20BN/RTbJz9z0r9Hkib3yPVU2u3X0FumLC9GVxIatpZcFgiDZ5W9s17nIGk6pLjiObUTnaXttTXpD+L3eDuStKuG4sYq0NcIIvRuQFH1K2Lh4qMmc/hXkao2beJ37xgkCI83bsnSQUkKmfBkKIxL0NfnRqIWzcm6OqJSjERCDw9oEFYagFM0RCIghaaSinKrxEUECm7xrIcqnDMGHAH1vz6gAyOkYuc+AEuNyXiSEcXDAAI3yFVARjDRiYQgcT8cxxqhpxdBAklzXXmSGAzwQoKFhXmSFyQrGjhekOFa6rAl06YPOcDk0x+b8gFVHsbyPnMP6A3SHhvP4PeB1bY6XzpIaeQjanFeLUmV0MqwNgZ/eOAZZmqtgxUHJgRMDQ+e0ZQ2hoNO8cZLTcWxr8Z1gR4+Rt++AW0hd3zzYGPtgX66lIQ8ZDJXpNChhA4ILW0l75SG5AXjOizRyaJURAVQgIAeBw7/ZGNtk3/4PvH3H9gV4VTSycF0AMHRrxzyVHAUGpE0AoSuVGHYK4DR8QnAFhhqZZY/AXjMjxB14sSX6BUBpFuT31iLAaN7i88xzzhbGkiBEpvTD5gV9fi44I4Dsj9/BEYSJvl2XPwhe7EKHR7YEKM2Pb8MagUdCwpcBswDJdtkY/OG/Q77LBgRLt9gQlDST0phIwkF37AnQ82+4IBkQuOlT0KwN1SPBRcBEgP1WpU2ixF/YkQDh/OxKwx0No1xLwIanvksjpbxhkF8KYLBDEsL/EDz2KEi5rqAl2JEdsq4yqvsf7CR/stV8SkCnCzbLziQeSC78zhsk2Y3uhDJtNoOA8Vt2SH6qRZqDuY7kBRbCdbqD++RlfXxBMmEeOgKOvWVUAhM7ZTfWiNgjCLArLaL5BF2RlXno9Ah/rKcvLuTV0qqaiBsZsCG4w+bpCf6KCX7P78kRZolJfs9WERH6pys686oBrxhgy2RAHkj40NCBEpGxTthljeRFH3zDnJAPMSEvdRpLluZ8v+0EgZMxYIuV4QJKQCbQIQLp+sboBBQOydEiAMpgREALSHEuBolBYlScRKDnWACLcwAD5wFkjuV82mpyesGNc1I8YsCAKE/bVk6Qe+K5xSCoUBaDxk61bMaqOcfQkLkyUsGXYcg07F8dGpzMvAAfRy9vMeS9FQzIfIGmoCcIICw+y3AdvyVf3wmyfW9LzPGCtTarQKO8xcCpBQzkjexVNvxdewuh83UJAoNOFzQgRuaMPQQBGKuwkKuhuxiZsxVOKOsWNDmiQU+CofajtSHj4tTA0QAMfoc81YbgJEgL9MCBbP2/Nti1oERn7K68xUBXPgeA1sBWOLnPgFCIIhuR8fmencoWXBcR7RuyfmQLKAMRI7cYnINdOwf5sHlBlfxqA+DTB8JOr64bggDgVNSQc3pnb7Im5yZbQXxOI54+guC8eXEQTGDLMmpytw5gymfZg3vc7MizC3CC7AV8xwNK3yFMgoxgLtgKItZBB44T7ARo56oNfkpmdOdajkc0nAc5lS3DFgRNcCILQUNFlGyGqhPswm8kHuzFfPkY/3JO5IUd8hNkADlCENiOoJM260iigIcoIPYCM/kJjHlPh3mYExzJZwK/QMYutPNNFdX37Erwdp68cIyMEEmYCl98jjCSo0BKHqoA5S0G/gyjtWa3XudGjGGhNbEjchUPYLr1+r31jXVUdW3+kySqvMXAj+A97BRjxAVVBDKEHxl9cUEMkBjfdE4HAAAgAElEQVRZO0JpXjBAh0e2k3eF8HO2I4mgRzjGRhEi/iseOb91OpZ/q+zwd3Pgn9Y6NPgUHbHj7i0G1U34T+8w2LW37V0Mg7Oe8WW3ggDwZTMcjZNZGEZVEgRlZ+xM0DAolrAJE+sExnE8AlHO44xYJ5DQj97wGeejQAYv4AE9x3FoTBJBYDycUJWCcwNlf8u+OJERgkDh2sZir4aAzwBk7UNDKRXgCUpAhUOmZXLtdxSO3JCZ9YYgMHwBzrUFPYaXN5Jx0pIgAI9UbTii6zLOIeeTIVgPJl4SBNmNdQOpDAY81K62SxDoNLcSOCDZK535nNwBjAwWiJQj9w4RRK1M8yY5ujSnvM63T5aqCwJIeW8SAc1bELu/IU8BF7gAIaQVIQECtaGMCoDzrE1JEGRX/o+o5AVEsjkEAQhzcoOvODYkCYkFxHkTYffabJGvCJ55cVQIArmQSUmCyFiGXRtDBEGFQ3WBDOlMwEzfd+cVzNJ2fAo89BEEMid71QB+KnPLoEPBAGFTEZOZAk0AjqyrFMgay2dY+KngwVfoUYBCNHOr0eewZIjgCtrIsuvxQ2QDHiG65pFnpSQoHq5GEPToH3uWAllhy4K9uUt62D+CkJf6pDWy72ERX+N7ghc8kGhIILq3MeArPKB/LYphHPLlHIJdeWuTHwg8AniehRHgrIP90WleOCbRkLWqSLE7zbWcK4mWIAo7QhD4C/kjZ7DWQNzMOS8Qg3GRhcrGEKHq2pVrw3fYXT6DoDpCJnTObmXd8ZGSIPDvvriA8JCXc8NsNmVt5TMI/Da3FMtz0iOigtTCy7ybxdyRdNisGiwGiBv0UxvImIoxYo6AlQSBbOEN28gtFeR66PmLKX7ZPWbbKwhjBEHWzqgEc0oQoHLvk2OvQhCU5hgIkCZkQB2jrREEL9jg9BwHEHMs5TGfMW6kxFyVjDB25auh4fcUCEytieONvbIUC82rnjmDawgiSIB5A2iBAQtPeZgzm7M5cTbBhcEDWyzd7xjXEEEQOK2L8XF2/yc7Rs/ZZJV+Ty6ce+gdGXMIgvObp3nLTg2ycv5UEBAtQViQMgAPUAqo9ulAUOS0ebuje9EyrloVhZycM6/XZneC9lAFQcB3ayAVhJA4/+fkyKfsG4CwAeCuoiPIIDgCIx0KPsiRLBWxHSIIbNn9YoFRb3uyQgLpXjaIRPk9O6Un2dnQbZWpBAFoAs8+guA+ufuyQ0+S0xGCQB5A0tzYutsAiJjgKxgCRrcDzJtOsjMDHrBJdiIQyqQcL8AKXo5XHkeW2HBJEFwzD6lNIQhsxXpkgOYIl5ASQIysCNiIh/mR81SCYH6CF/swT+uGUSEI1qDSKggJJnzecSVBSBtldolAmYfMWSabV07D29yO4YvWIWGQ8PjO2qynRhAEcxk4+dI5WxNY87pnBAtOC2BwAR6xaz7HDpESNsdWBDzld9eHa5GrqhXMp0cy5EuShrEH1fmKags8tm42IWkShK0PQYRRbI3vm5tgbv6+N9++uKCCkPiT9wd1CQKySofIJZ9TteavYoQqDvLE/0qCQA/sPVgsMR57YNK5EQsxy/VCPhBV10MGkaM8p7XPEwSGxxAxcEqSHTB+D+RR/ioEQcaZFzchCwKkkvRQBSFvnWPIgBf4yJoYJSADaoxN4ASYyeBqJMG1lOYAHmKgzM+ohwbjxoIdp+zO8QR8wUeWrbQEPJwPOMjw8jpgsjNXYMFQObDfC0xkMEQQkAzsVNYua1BxAGQMUtaWB/dcS4Y6VN6fSxAwanO3LmCm0iTY5RkEuiATYMnJBVygOrStT9Cif8EDAJk3QK69d0Cwtk5ydx1k0FyARG34DRKRB4jIzLX8X6ZINwCCDsgfsAoCbEjQUkFj5zJxOrYu4DFEEMzFvVBklnyc0+8AM2CSqQgUef054KLXrVYQhggC32A37m8PDaDNpwAgnQI/gC5DNRA+5f08nAcX2CVShyiTtYw3AC7bFhgQYHJgo+SwVYLgVlcCJLsB6j5zrfiVIM6fVPimEgS+jVDKTumKXbDPEATl57wiHH7xAf5eEgRysm6yJieY4hj4Kdv1+zzrgwSQsQAt2KtkCZTWwHdqBEGAzwu63GqhXzIQ7BFntu23SC1cykuo+Av5s//8RjUGkYKZsmvYAJccA1tS8TBviZDAPzTIG8Fmb3ycn/JRfsu+2IIKTd7AC6PZi3nwa7jVFxfEGHaD1Kf1+BBBYKvm7vyq1xIyeO/zkiCQH73ydbYkCYAFQ0Mi5Hx2EiFOblFYq8oLogHDYLq1IyV7HUEA+CZPEQwS6wWIApqAC9gEMUZDKUDfcCxD97APY+dIghWgLcumjskT1ISnbJ8SOIMVJDkYZTN0xsSZnZcxK6VjybJUoAKQZWVh1oiC7xmac2G2gB1YcUiBZMqT5hwKsHIQxst5pmyZJC+3CcjF9RkHEML+AaXzug3BSMiYQVsnOTFEBuReIeMyVzKyvtp2QrKPbpwz1/RwImMHbFiy8+Vhr6H+/ZyAnAQ9mY7MMlumZGCyRWDigUXzMhzPNqwtrJ995AE73yvLmyfwAaxjw29k6sCcXGq3F3IeYMo5BSTZDX1lfrVr+Q1Zky0bJL/cInIudpNzKW0aslKZsgqJOSHCAlx+T6djuyfYcIJheo6wcfIjRz6BnJDfUAUBqYl9mVv0wxecx/qRnlKnjlN+J1OBhp/xJcA/NKyZTxn8E5h358YX/XFecky/CKSHLmVVqQIhaCppgByZcDzCZT7Ald8apR0JpnmouTZX2Zm1WzMZ8qFckz3zM/bLTlWdBAh+MWVboOocHKErfkr2ArhSOxuAD3SP6KmWsC/nDynKnGGU4EDudEye5gYH+Cab85mRtyE6F53xP/+Gt/EJuhFAyY2/wFHyVRUQfBEza3UbCA7l2RNrEXz5pKBMBwas4K/wwzno2TwkTOTqNjG55u2v7A4JGesPwv/ZQZIi8oRXruMcfMuazN1aYA8cQCwcI8nqiwvICRtSJchAYsklmM3O+Jf4ZVgLe8pDjD7zf1gg5mSoWpgnGYmLYzvgSix2bT6a+OSaEje2R56I1VjVZQwnu99v/BbD3Aktxy8SWCSwSGB/loBdDIKlzHwZ2ysBhBARdMtgjORu78x25moLQdgZuS9XXSSwSGCRQK8EZJ6GSusyFgnspAQWgrCT0l+uvUhgkcAigUUCiwR2qQQWgrBLFbNMa5HAIoFFAosEFgnspAT2W4Lg4Q8PiXiYyIOAHtRZpX/9Tiqvdm330Twd60FMD63ZIrldL/fYSXl4QMqT7x6O2tfuH3q4iQ6HmjvtpOyXay8SWCSw70lg4wTBU7CAe8qT/tspXvty7TP2BK0niNNvfzvnsIlr2RYoOPpbsxD9BDzdPVf+ntq1lUyXOlvPPD079xyrrM8uC81UPJmsO1/ano6dy5PKnv72dLGn7j1RPafpivN7ol1DLk9aj72vYmw++V7vC1vi/J0dOlN/m+M83e5JcU3AhtrPuoY1aO5lh4AdB6u81XHu/DZxvF0Z7MDuj1WJux03noa3s8TT3ezJu1ZWedGNnSCegt8U0bYbi87GGiytQ9Z2HiCadiOUO2QkTLYW2hkwtoOgnEeSLXrKU/T6C9gCOdQjZc5aJDpko+/F2Dsa5px3q8eKI7Cy3PGw1XPupt9vnCDYomevru1Au2lwSFvJbAeyHU0/9qH2w7tp7kNzQcYAoq2UHF31wNafOcEye/ptdUo7Zdt5bJsa2h65DhkBKJ3R7CO2NUuQmzJsUdW0RBc7NgcA574+WHBFGhGicmvSlOvXjrE/2n5r9j/nlbnl+QC3rWy2ZQ3JH+ALio7T8yBtmLcy/538rQYxGsvYyrXK9i0kmQ2RnUDIPjTBWYUgIF32o+tdsIlh67Atf2X3yE1cxzn1zlBp06CoJK36btgql9buU69vix2ftcc/W4H1ZmCD6yAIkkzNsfSfkLTspqFxm/mx031xbJwgcCyBSpc4xmffrb2ngrG9u/rIa1qDodsPbM+u5hwAH7DK8O2RlwnpmiXT1/RDZqwpjExPJy9AoFmH8zgWyKdNsv2rrqGPgr27jlOy1XzEXlZ79LUVlR0IsHpfy2AwVX37NfEYG25TMGBzlWnobGdvtyYgGoKkt799uXl/gCxZ9zrZuX3wMmAOZX7K5Pbxamgicxdo9FCwXmxV8OOYmrjYkkN2SI5ArrsWOfitPdReKIMg2Ddrjy/G63OMvK+HgSzeft7sIQcmAraXkTgPp+AQsjMZu7mQv2zPHGW71giI9WrgQHSNiOnE5jyGPuZswxzMh7wADH0I0PRvHzzduQVEJtrx0qNMX28G3yNDdOV8SAwbIUOfkb2Mic3oyeH6QCZ7qH1vb7QqkgBg3q5hn7fre6KcrdqvrKX0lCqAPeBsQWA3XBdBYCMyIMEAWTAX66Zn2T85aeJlv7NM13XZE1u3/1z1wNzMwb5yRIgN0JWtcXoouAYb1y7X7TNy1PgFwGpE5Fr2hJPPFLtmv5raWJPfabTEVtkD/2Ov5Jn3XNinLxCbl2vao4302bLH3tiKW2BeXJP3nFgL+2aX/F/zG8P/6ZLM9DwYGtkvzgbJCs5oAUyPCAJb5BeuiWzoTBhCBSvgE0LhGMRYvwTr1D6Z7dIVu0S46QYuwQl2pccC4tF3W4sP6T7qlh/7ZUP6JrC1vH8EIYcLfNb3Kgnsx3U1kmIrfI49ZN5wi7+TPfu2Lrqw/x+J4Rv8Vj8FcmcPGXmBm3XDO9k+jLT3P+8v0FuEfFyPvvRegMupsqVDp8/Mj44RUj4HS9ksmzRPrbPTVI4edGllB+atURMZkisZ9hFzOtUMjC+mhwJ5mC/soxedEn3HzviPXgcwEX7DD2SI/FRVrZ/MrU0c4DPsN43O2K8Kisqr+Wh4hGDSD9JKL/SvwkVG/s/OzI8/w35D8inBglfskTzMwVrYgmZHdOb/5YCpfud61ia+WRufNR+/Y8NwlL5hCz8j93WPjRMEGZnFEqTAzRgoQnMjQpLFA3VlXZmCBhIEwEkJh8AJkEMBHEEgr9QEfP7vHD4DJAyZwtLnnHI4ukCcdzoQuGsKZBSkjM6pGDIGz2AEIIBK+AB9LAMHFoIhkGaMHJbBCIACGOBxfUDDiDms9TE+jgrMAA3nYQzKdRg4xxJ8GSywZASYPsewdtUZwUUzEgEDoGnswmE5vesgO4Jw2qYKIAKe9zKQU3foWAk0gIUhsyEfOiSHBB7ZrDnKHjgQJ9echq5k/oBRRg/8zZVzAGIBU5bCwVQ7BH+y40Cuw4nTDAZhANZ5X4OSHufImzjJDiCQN5npREgmwJGDmgu7AFiuI8AiZIALwVH+JxfO5zhBE2ggDMiDwCRwAxXgIIANDUTQGsiEzmVSiCg7kmGxKY2NlEwFCLohC2DP5jSvUQGwjlQyBFPzMAf2mcAnsCKj5Ox9AfwkffXTthnw0Qs/Mie2BzQROQA5NAQDPsJm/QYZBewIJ6IpICAQ5q75i3Omi6IAxc/4HjsjY0BtDmkzzDfTIpcdmCdfpuNk6gIBojDUrdMa4IrfuA1jzoiMTNm/EQR6YfdsGdmxJuDKhvmlJma+52vkyzYFVriEEPAjsgf0bAQ4801+L6D4fd7PEplKchB6tmcesI3+6QRJ4DPIEJ8JOXSeYJffwRJrISu4JiAjYQgRGbuVRsYCuva75mjOgjo5CjaCMCyCqXRKF87FlwVlja74qICIoLBHPsJmEJy0kGa/6UrIFxwDY+C5xIRtkSWc4p++Mw+JCltmn2wZiUCAzFcywn7JEI6ZSxdrrd/580IypMZ6JUps0efiiaTF2syRzszDeuFiOlGyVdf0fz5PluyL3cFUpJ5+4DJCTmewy++c2/r4NdtCdhA/NkrGCLTfkjW/5MvwxbnJCJbBIzhIF+bN5vPyOnbDh/iIa8JoWMDPkA5xwWeub61wmt9bO/s0f3NY59g4QQC6BJh3gwugggEAjyEAB0rEdjmZgMz5BFCkQUByHkzSH45BsByJwFIy5CzOLSNk2AxJ9sPpgIHMC3M0GAIjl1H5NwNkqBg7MAcClC8rcK6hzmjOSeHWwKAMRkGJAhHjyQt5XNN8BHrGjZwwGEDpOlqtckhBMS+rAg5+B+gYNzJgjYwVaGe/tOBgjWRApn5n3QzHv/MCEnIHuHRizt2BTAGs8v0GAI6sACqHAnyunXvigr6gxjkwX+zeWhAElSNEQsYgKANxc0UCOLkAT/4BPY6rsiQroG9OYs7OJwggP/QOyNJFUeBiD4iQYEXG1kcHKhPIpM/JCugCLyBJroYA4o8AgSBwyrymmcwdz44Fj6FhjQINYBYEylsM1kE/5sBmkGdB2rqBrzkbbMI6/K2iYR4GEKUbIMo/BAOkgUxcC9iTK1AS3PKSH5l+3npKj2wSkAD4oVsWwJW++FpuWeTV02Rk7mSK0JO1rI1s2Z6BqAG8IYLAD1RJ0lHOWvl3XsYlUxV4xt51QpaqL3nLJ5m63YJYdgkCgEXQBHt6IHt2yEbIMi/lEtCsz/dIvmM8E8P/4AH9sD/n8HxDOkPGPgQRQR6mybIBunm6vcnHySs+TkauywboBgZJXiQykh/+yx/zgibXdH72wVckW+zZQH4EGcfTMf9LNUICwpf4lsEezAPulbcYYIV504trsWNkBtZaA/LHbyVtbN7fMDp6dM0QBNdAJK0ZOYY9sJqv+T89GIiOuXSfMYCpcDxvKky3xrwYDZ7QFb04l3PL6PkC/IZVeeGZOaqkWj+/znzFJXbB78gT9pOTf8MPAdjffoPwBDMQvpAEn/E5lW6xTMKTF2khLXCR7/q9v+moO9g54sQW2QxCa13WRH5+xx78LRlkSwbC6k9ZKVoHUdgWgiC7Sx97ipCZ5mU8MhGldQqjAMbASRgJpQo4lA10OKEsNq/C9Z3gDqxkEMDTuQie8zJQChR4GV4IScqyskEAywkZm6wZ6+NMAo5AaA6YbZ8yowCAm3dI5KE6gVMw4eSyjLzS13qtHcMF6AAyzz6osFAwQxAM0/rUOTkHFsrhsUYEIeSlvKfKsa0ZcHBMgIclC6bAlzMZHA5g0Ud3AABzYqgZfQQBaAA4gZVjmi8GnVeZChwIAuYteCvhysyt32cCHn3SI7ID8ASHEATyA5R0mUE/HEcAd50ELIwdGYiOzR/rJwdzEzBldIBM9kCnzlO+/pgenYc9ye7coiIDc8L8rWHoXQbmmBa5AeuSIKgCsPHyAUifsWeBLS+gck2yIsu8qta5VTTM17nZB127TSUQsuFUELoEATizX8fmQVP+hXyPvVIXILIHc0QCzJPt+UxVgT5knQDMXAVeINxHEARadlRWEMiUn5W7MxCovNtE0KJDOhkaCXhAPqN8BqGsIPA7vpbA5Hh2SSZ8LS/lUlFkY9aDIAiK7B3Y5/ZDCCriV9qpc6Z6hDQhYjBGJphXCEsC8j6QkiBIThABvykJAn8QXJC2DD6HrAjWec6LTM2P3AQXMrcmvqLKJmngf4ZrwVC+UBIERIK/lO3g2S7yi7zBFHYoC2Z3QwQBTvFxuEYGMI+tw/W8qdBckApJWrk+n5sD20+7aASBvfitIV7AGQGYPKwPHqtesCVYXJ5TNYOuyDcJnfMgC2RQEgQyZxeSGRjl2uVtxu4zCI5jX2wExsL5DPKHSf5GfPse+oaJCJQ4luuwMThRxgX6REAk0wads9G8y2TQWWZ8uXGCwBAAvizGgrsEgSCwJIFT4FZKBzY1ggAo8qY7WQK27FgAJpgzbIDJKDFymTtBhpHLaBiBgBHSorQLcM2VswH19MJnWJwMkCqLMcC+Pv6AIyACjJwHEADhkiAIOkCIIXE48+akWDqjwuS7BIFTAwxBD1gJIEAaYwT8ynZ+n7ct+r3sTVWCU3Fm3ysZynKUqvxbOVjW3x2cEZkoX4MLGMiI46WCEIIA8Mk7ry6lS0FqiCDIeOnN7QKODGAEo5IgyO7JHKiYswAuo6P/LkFIST/PnZhLXhHcRxDMmfOTOXD0N8DijGxMxsYOgU/eQqe8iyAIlCn9dh+eE5Rk3I5BMpFOpV72J6ACY+QEkXFe80BgQxDIgn0JJCpMwJ3v0D3gQfSQPDpgN2xNkFYlEmRSQQDcZAq8HSsgui69s3tE1LkMBB6wdHdu8CN2x074mmwIgQLEAjjSlGceEGCgZw4CR16ZTQY+oy8BFrAjEWzf2tkQ/wD2kQkiI8AZvrc29mT4my12X46mIkk+5sa2XAMQk1G3gsC++ZGSuiBhDfwCKawRBOScf8MbOCVQI7T+b7gu+ylHXk0Nh9gJHKJfiQw/qhGEPD8hiCHT7JQ9ImDkwa8yb5879xSCkJcrmWuCj2sJ2PTPDp2HXdCn4JdncOgTDroenOUzZCyYqgDlGaA8i1JWEPoIgiwe1klm2Dm5wEx+290p4hqqF8n2uwSBT9IJAor4hCDQRV6HLFgbCDzdWTM50oGqgeuzA1jZRxDoWZWT7ZgHv0Me4UP5kGIIgjgmqPNd5yc/dkB2QwSBTaqQwg/n8Dv6YMf7JEEA+spfgIXzyWgBlWqAoVQC1LEpRgdkVBhCEGQ/ADcVBEFc5k8pFK0MylEZPRYlmAIzIOPazskYXFOw9Dv/5nRAgaNwNhm68o6Sl3JqmDXyYH4MC2gB174tQK7POTg+owDwAEGg5QDWoxSH0XJyRsOglYmsT5mKMQPrLkEwV6WkbEkC2uaD6CAJyAs5IClk4/6z4GDtgjqjB8hKpMDWeVyDDrqgRidAAVAgN6lOyMyweyVb8uMsIQh+w6nyGuk8rc8BkRkkq6wg0BfdyHCs3VoAMLKImAF657MmnyF5dOc4gCLo5MUlqSA4RjA0XyTQ8QK8a8jS8uAruQA/oIW4koc1+Q3dmw+CoMxLnnQNDAAXIkavAr2gA1y6O184tNKuNcZO2KNMkI14uA/QAkEZGsBhL2zOPVPBHElCjOhVFusY83JugY29Crh8yrkBK9JAv0iHIGoNAgx7Mx/nIldzYjeClHvVgoKsJm+sLAMcmQA8tklGeb0tvbhdQg/mBCjp2jzIGcipnAnUsjcEQWJAdvyTjhxjrUiB7E81y/nomJydn9wBKhmwD4EBiQn5KudqjtYHP2IDSBw90hU5IVJ8nn2yy2TVrinbV7ql82TiKnXkQuZIL3thPzJo/ms99I8UWpfKVDnIhv3xFz5HN3DMOslHkEwFQWKDWOVZBr8zkFzrkBD4PVnxM9hn3ggo/+IPbMxw6wmpcw5kGnm2VhU2JKd8SyLMcw8cPrEr+CYgIR0IIOLGzhAD64YJcMt6+QTdII50zObZMJxgW7nFUCMI5iTwWiPyAmOU1rtDcEeg83xCts3DY7bIpsmNTBEet0bgsGHe/IAc2CMiQU5sjw2QpWP5IlnwxT6CAFusW+LleuyIPMlKTMkzMvyFndCH2KHSRibmLA6oAGZnTW3bOFvk/2Tsd/Dc9ccIgviTBGlGkWDw0I1XEFydc9rLTTB9T81jb0AToxx6M2C5EoKT4cj4ch+VolwnZCPHuz5DApTAg1EDH85P2d294o5n/EA5wU5gEpiTyfRJFSAIAtYZFowgyJDcr+Xg3Wv5DWMzr9pWLseYj+9TZsv1gRPwkBm6FmfjBORAnt2n7jkC4EcMag9eOqcMDfmQ9WX4LVn3vV2QzAQKwJWgPWakdGLt5jy0vxyz5+h0PbRVMLIkp6lb2chK4APaXXmYH8Do2iXCi7QNbblKKbJvHuyUDrK/HyEGgCHNXRsBZmQvAGeO5J1qUE3e9Oi3eZMhOVoP8hs5ArM80FbTV2yGP5S+ppqTwFL+VuUKWAPIPIPgezIh077tpz6nY98FA9izzBZhJas8bZ/nDPrm63rWzFbGHiyme3PiC1O27yL4/pQ+KEjzsdyXrs2JjZHflEF+bFlAgxvuafP/zNG8HVPqY+y8bA75VrHsDmtCsPr6TbAN+OJawRJ2BV8cX+K1NbIxhGLqCNZ2z1X+Hk4jdwgVEpcKAnJPFlPwhl34A+9Lu7AW52N3U2xA3BCr2NeUbfGJCXxw7HZel1wiNWQ553dT5T71uG0hCFMns6njZBVYGAPJA15zrwWcPdA3dx90CEKeQZh73bHjVQywekCdrTxjv5nyvWCv4uOceZ3rlN/tD8fI3mW8U7Y8TpFHCEKeQZjym3UcIyjLYN0CGXv99SrXKx9SnPt7AVAw8DR3Xo2tmqDsva93k5SNIkNIHBtTgdhqZ1BVERWK7eizMFfXU47nGypLKlUSw/IZhCm/X45ZTQL7BUHAggVRLHVu85yIFRMcy0j6VIDhyjJkoZsYSvUyPGXEKYx2zhxyi2Zq5jPn3HvzsavaQm3NMl4Z3NBOmU3Ja91rKefJ7mWIKkRzB5v2eyX9rfrg3Gvv9PEyelmzbBVuTK2G7fS8N3n9PKMFv5XaYdNu6qi4ybXv5Ln3C4KwkwJerr1IYJHAIoFFAosE9kYJLARhb9TaMudFAosEFgksElgksGEJ7BcEwQM+bi+s657xJnSSh1ncX5vbDcs9bE/Ue+I/+7LXPcehBx/Xfa2+LWPrvMYmy+pbmad5KZ26pTP1Yd2h63kAy/mUqOe8fGdsDR5a8wDdpl8EZY+3XTge0itvn3l4y4OCq95S83wNP9nUi5dq8vNQabanznnwLK137QQqezeM6Wl//94tmrSc37St7quy3i8Igq1R9urOvRcKYG2Vy7sDNmkEHhSz7cbT3+69Th2Cij3HtubouzDWca7vvJ7P0OwGyQD8fcM9UVunPFVtq9Qmh+cpzGmdg5zMHYkC1B68tGVsO96eN3Ud7M3TzvS41ZdFecjPg21syTZGfQLWNdiKp8rLRlrrOnfOQ1/2tNu+mZ4I+c42UA8v2mo7d3jgT48I29vcy/bwm50SU18KNvd6Od7OC1v4JCm2Q9rSPGWwCbtO6NCDhrYszyWPnufwoCf7TzfCKVJygSUAACAASURBVNfe249BEGz7QwRtyd4tg29q0GTbaLefhzmmc6WHdLfjDbpDctmrCMLczM8DUrau9BGEKeeSKWHstjduZYxdy9PkKhz2intSO2x37HfmZGuRfe2CgQAPeLpBfuw8zmGvuO17Q1UW+4dlMY6dkwHNlV0fQRhbw9g1EDBbVQUWJMx2P6Bd7l3f6jXG5jD2fY0grDIv+/Ztr2UTnobPW/VWOVc5b78XYLsEIb42tsap35MFOysBNHNflSD4PVJhz74943mNtv34ff1Aps51ikz5pb4JAjX/jI+O/TYt2DXdQQ7Io6yc+L0x9AA1fNEbwA6sVYnQ2DynymrOcavYVHeeKrJ6EuhJMyWx2eo6+37f/Yw+9Fxhi9mCXMoFsdE7AYFYd2fEOfJv7eqfsbC5v5x4vK2FGj9oZMHpObcmLV5cwfiBl85UtkQJ5pw3b1mU5dla6DigpCmFphaaT6SHed807PlNgxKlVSVFZTrKkGHbQmTvq0CkCUe3t0DOqYmHDCMgBXD1BbD9zzY3DTjMVeMW+38xPmuzL1fDGKBjeyMGb3uWLN8+ZO03gRPQ9rntRzJbZMS5NQwxf+Cud4Kg7LoIhAY41pGXNaVJh7Irtqn9rvXIOBAj2yzJXWDEWpEBhqfFMUON8wAv55a5p/0tMPFvDWiStQAq586LU8bMwN5lHRllsGk3qxkUe+CwGqQAAts1yZc9hCBwFPLUgIUcOIteFp7yNm/NdNK7v2yx2zcn27vIXAbZJUHkoJmWDmz0SK/WXBuulYyEjfhtH0CzDRWodKRULgdUPtdQxX5q67UWazdSQchbDHW6zLYuTbXIkBz4D9nKstlQdyCayqtASMMfASnVEzsD9POQTWpyg5xqLMZO2Vx30AMy5Tquz540i1JB0MjM+vkmezZfftAdYMatMLpX1VDNY5PmaYulz9gYe2P7bmnRL/9xPb9DepBn66J3+MA34QP5awbGXmr+TP56oJCboTmRP7Z68h164iNkoimOv/m2a7ERt/4cI6Ong7zxz20crZ7zNlm243dkrgEWPFCtYtdubVgHH2Qb7E0/DXahM6HjEHWyoiNyI2u7XFxPd1G2wXc0wdIgjF1bt0Y8fMl2QP7NZ9gZeWpcBMv0ayBv+IdomF/3bYKl7mCO89GBPgp6W9AB2dCff1s/XbGdNCgqz6Fip0GYfhaRCduha9sWzdOOBLKlB3gNI2G2tcIh6xELXIMM6JvMrI8NIJN0wDb0aYEZqcLpQMl+8tK6PtsUFyQQ4lXeBVLrbaGCJiFTlaYzc9IcSkMzcqIbPkd3/MFcJFRpfMZ3VTb4PF9kN85lTYirnjZiIntzu1G88sc1bTs32KemS/TPJ8mrfOnTGC5P/X7jBEFHKASBcwIAhpwOX5pA5K16hJue7GmXCkgFIyV+3cI4HiATTASWGhvWepOROScl+a3rAzHOqBdCXsksKNdKpQyf8eVFU66JhQMVwV5DHgaReQANc+PQeeUq8ARyabPLUXyXbl2azTAChiJDENQFeVUBBsThkQbOjRQgChzEvPw2L+7wO+SKDAG52w6uJdgxLnMQAHX/Akw6MzJIBIl8GSWiAghtC7U2MszbNvNcBCcCmAjSlIG4mAtD9reACsDZhcY4ZEdHedOd64UgmCf5YdsCKVLoxT10Bmi1X3V/2jn6mHg5P7akvTA5AxUOKjCQgXOqKPibvM0BMPY9CyITowOg4LeCu6CTFrPdTADg6RpoexYgFvgAq+sBIMGXfhEOIBmCQLfOTScCg2PoEqCTo8DPPgTlvsY0SDSZWwdSaN1sSPABLEAbabNWNiNouU7fMyzsJm+LQyqQSbJTMldJYBPsxzMD5sSOu8MczBtgAr+8a4CuzUVgESwFeYGBXPybz8IPLYfZrAAjCxdMkAu3vsgsL/qCLch532B7/CYv3OLfrgGcbTEFtAIS2xBs2JV5Czh0rVMlm6BH8hdo+ZpKI1151olM4Bw5wAbdBH3H5+nd7RLgDpuQVcc4pwDoOoKTYGauZELO/ID9OEaAdk7ngSEIRVrHwyey0q0R2TdnvmPN2lOrAJJV/A720gmS1/c8hu9ts3QO14dhsEFnSXZj/myYjmCs9fc1UYP5iACsyXtDJBrwhe2ap4TDHHVvpBOYJHCaK9+SuCBMZJG361o/ouLayAAfpxd27pjcVjMv51Yp6ttuTi46frJzSZ2YQ2e11yebO0KLFPAXyY4/edstu0Corc+6xI+08YYdCATbRUoQErjj93DQXLzzgb/qh2Ht7BD54xdIElt1/rxMjk7EAZi07ltIGycIFE34ZQtNQUiAsMC0oQWQjBD4awXKMQRcCgNcDEwQZGCOYSx992+cm/EyrvRJzy2GZEG5/wcgAJzyc9/o3mJwb9g9a2yV0gCa7ncc0nUZMXCicIDAMTggw8QaOTCjcj2MnlKBEQXLShgHgGIc1px98QAMCMucMcg8ZyAAOI8/hkwCgAKfBOVUEYBa2upyLH8ygLUALRiFYGguBehcW4AjJ4PzASlBYKirYc5Nv+aXt8txYNkRgAOiiAbHYPzWmDfRkSVCKKtN5zzEibMJcBzBPdk59+rJFwg4t/mTL5CzNiQtneR8B2gBRXcI0mQqGzf8zU7y8rG+40OM6QTBAKrsl/7IR1XJvXbBIQQBKAODvEJYFsJfBBnnoeOhB9byum7yRYgRDFkoQgGUgKrAwlf4qEBTG7JdwTnZS55BAJTmkNta/IFOZFXdwW/hQKo/iIrf+Y2KDNsUoNkaPSGRAgWfgQPWjIgZucUgo0KWyZEPsSGEsbYWa2Y7KTV3bzGYG/9DalMREpDoll8ICsgN22DH5pMSsN9JXsgdacjb/2TWZM7XZbIJ7GTkN4ZgBg9VBBzvPAZbh3F5oRBfUP1AMskGDvArVUS/VZHyN5ssGyL5XQiCQCXBgaf8l9zhU19gkVSpWuWFQHBOlpq3IE4lCPxdtcDa2ItgRybIK5mYPyIguUIQBE/z4md8S2IwRBBUQvxWMLUmNgXT8rbHvIQtxKprmzAZpuVttXCeHWXd3ePZPbLob8N6kKw0lHMdwZ0vqFZKygz2Jy6VBAEW8E06ZuPsCeno3mLweRJP5yJHWBSySy/kVXa+rTr0jC92hCAAercUgB/DzAsuZAaMmUMyHgqWIRA8oU8hCIAIA5NJMEgjBIExOi+nT1tNZZ/cn+3KDSBQKocwugQBeAErzBVrlNEqJ1pbSRA4uv8DZAEA0zMHLB/YcoqSIMgkZTDkkqGUJ4iUBEFVQEbJwVM25yzArSQIAp4qCVAQ9ARhnSUzSoLAgBk7OSFBAKUkCIgc4uOceX32WAMpZIMxCzSAENCYO9Li3zIoxIqTDBEEGQgSo+Q5lyAIIGWWJAgAIkEXmAPNvLqaXMi774HNLkFQ5gRiAnjfcH52Ya0Ax3oBUioxSApdsIMuQSDrlPzZrt/znVUJAt+yLgHGOdjvFIIgo+V/efNnSRDc4uAXqWLwq1qrXWQomRY50KeHBf0+b+szHxlqSRDox+dkXRIEAVFFMO8aEYTMp0YQ+ChcyCtxQxAAOT10CQK/dV1zhk0yUnLoIwhIfV5+lfV4KFBg5ud0G4JA3+aSBMaaYJAgKNiEYJFN1lfaFgxBjkIQkBfEQOUVYSCnGkFAXgRC5JOezIPspxIEAUlmnIceJTJjFQRztxb2zIaQcRhJJmSjK6KkiT1KCpAv2A8XSoKAHDueH7CzVBAQcLgGB3OLA1HILQLJm7XWHv7lj5IV+s5tUAQhr1IeIwjiDMxGGjLoExmV/FirgdQJ8iVBkAgjhLA9r0lnYwiCKmCSlC5BYOdwJQQhb52Mj8zgAIOHbpwgKCmmxASglW1UCigaQ8X6lSeVOAkVkxQYGR2Bcl6lc06R8qUs3v2svncXUAinAkYcCHvlLIIzsoH1CU4cnyNSTvnKz1Ja7m1yOIEVYLlmHtITPBlU3o7HSbFYWdEQQQAaDNvWMwGTMciCSoJAXuSBoVs3MgEAyKskCOZufkqWssC8b5zD1QgCsHe+lIFlCG5FqNoIvsCfw5kT2ZlrSRAEZ8fRn0w09yXzprWatamgIB7mKhAjgYCJLuhGlcF9u5IgWD+wRzDoFcliT9ZWEgQ6cM6hp+rddlKNQsaQKAFdsGADAEJlRIkwr3tWVeirTtCXapisHAhxcKQn7YC765fNcGa6EtyVRDm+a6lmAE4BizxKgsD2ZNmyafNGeoEA259LEIAsnyNv13IeRFplZgpBAFyIEYAFtuwLkOcWgznxUeV4x/btDEFOyFzJFSlnL87Dz+ECmycPvkvGIQi+ZxeCArJEHgDWv33nfAKWNbIBAFwjCI7lR44x8l4FfsWP6KqsIPgcMLsmEozEOm6IICCaAoZKgayUv1sX2w1BUD2CEWxItuh7dsfGS4Ig80Uw2K4/nhtwbdlpjSD4XvBHTPmxoExeqSCwf9fKA6xwg177CAJdIz5wFJGABXSlaspfZbFkyZ7pX0LVd4sBwXJ9iRq9uUXlHPSPrLCHVBesTUJI1rJh8pSAIU98VOJkvuIG3cAp8xCgrYmOyclvYofsxPxdq68rbIigain9iweqEbVsvFtBQFzomh75GWx1Hb4tiJsjbFZxggElQRA34JFKkdjHz9kz/IGFAn7soqwguGbeuovo+n2qousiB86zcYIANAQVJSNOxnEwKwaf/gQCPcYGcBkw8GI0DMj/CUAQy9sXBbUaIFuUjNj5gbIKgDnISjBKfwsIwIEDISxlpl4KF2CYl7KeY933FGAZN0cRIBk7AFE54HgIgrkCYXPnFIiJ/3NWv6VYTDcPdWHhHA6AMCzkxsN4DC4vt2EQDJwcywfyBFHgqnxMvioKDAsp4jAyI8yaAZu/OZMfhp5KgzVyBgGD82HCskxgyGjJK+VQQKfKgNmqAPkbYRh7ChxDtj7gBfzdexUMyleZKpNxPvN3PMcg79zb4wR5YMqtGWQDsQIuAg5d1IbszzlVDlQ+ALPAI8DTM3lzMLZHB+Rda33MfnNrBLFK6bt2bUGT/K1DBi+Y0VN6HrADZWGgwOYFUnNAhmRc7EFWpVSZB/kAp2BXGwITwHNdg67yKnTyB+rAn13ypb7bKTk3XamA8AO2CgTZK7kDVzrxTIV5sv+UVMu5AUL+ADStl72oojh33rQpY2TvAFWgYcOCE8DnU+yYP7ELts2f8/CyNSHTAmxtLeYKsAXmVNzIgU16VoR9+G3sTYAGyoIa3+YPZM7+BR86RHwNtsyvkX6yV32CEdZMvoi34OYeOB+UyTsv27MO8xAoHFO+kwM5568IlnXzAccimvRp3rBMVSIZKF15Xsnx9MG2yDjlfP+GF2TptzCp1j+FbOCLcyHMbqHALthEDj5HWAU1QbnvIUXJBF1bH4znP/wOyaQLyZK4gEQg+TCOHKzZrZncFlQFJHNJI1thI+wCsfYb5IJvsUP6SEZv/nA/pL7PZ8gGzvlt3thZe9jVulMFci52Qp9udfm39QQ/2Kn4AEvgv2SCj7Mf83V7hX7YAVmSCRtGiOmdvMzL/JA5MjLy8GriKswcuk24KmnYOEFYdWLL73afBAAaIpHX4QoEiEZKz7tvxsuMFgn8WwKpQgmQyOjYrbFFdjsvgfIWwyqzQfjdSpQgqEhv50C+8mZTFYQ8SLg3NbtaCMJ2WsxefC23V5T03Df2UI2hVOq2yk4389iLxbpMfZslICOXdbrNNlb12uapLZfrkYDqkYw6W1PnCAk5UGFSHfHg+HYPpEClTcVIdQspVXmY8lrp7Z5r7XoLQdgtmljmsUhgkcAigUUCiwR2kQQWgrCLlLFMZZHAIoFFAosEFgnsFgksBGG3aGKZxyKBRQKLBBYJLBLYRRLYdoJgy5qnRJe3a23OCjz9a+fGurtqDc3Y07ueULdFaZPvadic1DZ3Zk/q261hl4KtYJ7Gru2Q2OosdCB0DbsBbMX1hPz+9jCe3Sj21Hta3O4N29ZqT6QPydtDZs5DlnS3zrc/Orc+DrBwbxns1lZlWyznvjAqa7TDDFZs57o9nOq6upPahTMHFz0/YGuw5xjsLlpl3fDY7/p2eOx23W87QSAkT71PfZvZbhfgOudnO49ti7YxbWV4AEu/BA8UrjJs49Hbe85rp21FtRfZlp453Q1Xmd/e9ht9HmylFWxsV7KnO81T1rkWYOYhKH07EAVb7QTHWhOndV57t5wLObL10BZJfmTLmZ02tWZoQ/O2bczWNVsbbV+0LXBdA5m2zZavbnrYYqp/i+1ytmOvOtit3hy2W899M65r5kl+2/1sl7bF3DZh/97k4A/8z3ZIf9IFdeyaiIWtvHqF6AnDZ/U0mTOcw/ZEW0FrrZvnnG+7j90WgoAx2l+v34EtHoJg2lTaP2sPNVZqrzEHl/GkG5snUe3F98Sxvct6CtjLLnjV9u6WQvQULGAGEAJXGCD27nOfpcVu3jOPKbvukBPoyWAfrkY7nko1f9cSDDzVb694hvWZt2OSyTAcx/qNtXjK1f5v+44BuvkiU9inebie9Zqj/hGymTJbt39Xlkp++j/YB52XBGHOvrO3fow925crqOiNYN+3TJfMyMt8XRMLz3C8Pgh0phcB4LOn2frsWxeobDOawrztBbZXXcamfwV9y75tdWI7dlK4vuoT3QE+jjd0brokO+vO08PWwr5UOsjXNck4xMb1nNP39EPubNAcrJUeZeZ0bz850Mi+enrIum2r8jm5kSlb1xBJkxd7tK3H/NPxjcyc0/XJcC6YO6fmPrZ0qR64LjvQEMpAIFzT2shxSG4yXHMhH76XPhhDAKVq5fzWI0Mkb7q01cseeOsWZEv7kdkJHPSTXQX6Q/AfujMPfmAu5s+3yt0H/DQvRmKv/q//A93p5SH4lJmbOTiPvhK1V5tbIx0gGvazW7trOne69aWtrvWxJ/0N2AhC0tfAzTnpFw44np0gMLDQ4EdkF78eeqtqdMnXXM+6DbboGtZHrnzIXMjOziP9CNg5n4Yj/mbf6YhqbtbD9spumDCF3OjCfnvzZJtwhpz4I58YmzPCZZ36LpClhkF2KEgWYRP7YSd0x2ZgJT/3b/jIP9mUeVij68WmEgvEGvNzDBs0Tz0VNN+SMLmO87MxuBx7pA96IR92l/4U/Ae2kSsb9cf3rp8W8XoTlPJyHudmE2ILn/S9+ZMlHIBr/j+FaDkXzGeHWWfwKJV4PrSJXTkbJwgMSOCIIVqIJjNehqEJjsYbFsm4ddVj2BSZlwlphoO5IRg+t12FwzNkGbestTY4AcZoOF4nMA07nBObc13z0rXQdj3HMhgNPzDlvPOg7/zWxFAoj7EwfsDM8AVkLJsBCPa6YaXFra5imp04XkMUxirQWZ8tMWnH7N/mpO+AY8hNuVTTFcDOgGN8HEWGQ04Ahiw5HoKA9Su1cixgr3GHZiO1oaGIZjKAh7PaXuS2kK1hCBHQJS8Ej3PSY+ZDlkCLoWLs1mJuCJAmLkO3lYCDbZSIDIekY41NyNG5OBI5G8DOuwrIX8MkmVGtjB5SYV5AjNzoWFbJ6TTGMUcgZI2auGhqA0AEHsDEXgUU86dfx1t33gFAn6pi5E7W9I8YmTMbBRglQRAYHEsn5KzqQtb8gR6RQzJVKp9CgqNLeuU/5kJ+JWCTnYDHBviC+eSteH22oEkTexJEzVXW5U9NzuyTXgAt8FOBAswIlWtlLv5m6+QqUCCi1kuXgiXCZO5+o+8GkM3Ls8jI/AVtvixA0QNZ06ugrZOgdTqHebDFvOyLXWtA4zz8hD8lOejKANlyLmTGeRG7+Hzkx7+U3HXpgxcyVf5ee62wRmT8WdCmD13zrJnfOLfPzJlNunZtsEuZt3UIuDJUdsOuYBBbTsMehIbebEm2Fo13YKtrwzs+5nrpNOt7MlaBtG+fDeoqyPYTOPkUP+Wv1uJzupfcDJEEeJhug84P4+iJLmAubFeJ5KsIIqzWUCgYSSdwm8zYFz3wIXII8WUX1uRztsuG4vfIgmZYSAc/d9684RWZ90e1CCmwZhUe9pU3mJovvZBfro8k+B4WWgvbZNP8mj41MtK4yvskNN1CsJw/50Rmhyq1Khe2R1qLWOr/bI2NIVZpjuQWGF9b9xbKjRME3aI4osDI+DApi+S4QMC+ZIbLOAiZI2LEupHJPN3/EYwoTKAA1s4hyDPI2gs1OJduiq7JccI6AS9mzXAwTN3P9AHXmhTQMwhAS9lDbwjk0LqZcRLG7TcCqXVxForjxABPSQ3IWRuQ4HSYKCdhHGF/CIN1AXjz5kxKg4Ir5ktOjMT6MUhG4jsO7d/Oh2UCCYaJfOk0SLYMU4agHS0GWwN6QJtueJgx8CUv50JOyFzgcH7tdxE0XQiRMUDKuemRAzJ+gOF8AvlQn3CdyDRgsn5BRuanfStHA2Cu59+AjU0APdexz5lj1LJh56JT8uGgghIbch3XcB5lRETP+vI6bkE9r7YlK8cCBjpwLjaqg6DjkTHrRpyANyIbuQn6ji0JAiKsoxobE8zIU2WNrQAPxEKARtYA/NRnCAReNqd6YJ7sGTjJxICb/+tUJwi57lAvgGSjefkXOclEayRPkAKwOsHJkoCYjJUcEC7+TH8CpOBFLuTNf5EgoG/N/FLAgBvmDPz9MQ+2RG5AnlwEfD6q4xziBvjJUIBMhqtjH9tRRXI+azAPvisY1F4TngY75qMiomuhoMh/+Rs/g2PkjCDwWXrmm30VBPblODKHa7JKZN2601efnCQL8AMu1p55YP98wu0kJNd10/4c2SQjOnY92ON7PowomS8fhyfWkiqDYCsB8J3uj34PR9iJroTaapO5pEUwZgfmitzBPZ/XXoYEi5Egx1iXwS74EQLAZq3VvxEexMD5zcc86N763DaiYzJDiMyfLvkv2cErdscX6SBVErpD+AXvdNe1BtgFc9mpJIP9ugas5EPwCnbxb6Q/1W+kIomm6/NtQVyMQkbYjOoM3bBPGB6CkGqodSEgZJiX0XUJIT+iO4mq+MFm6Ia89xmCwIgF9rw9kLI5FmcneIJLiU3QxMo5vu/zQg+GKQhrC0tQhkwWiMXg+tg2hxC4BUlsWQc1gZchpFUz9mtODMVcGJFscWwgCLknJeAzEk7A0DmvgOIdAZwfoGB2eT0zI2dQsnMBDwFimEiUDEQAMQQyQJn3JjAYQK0qILgITgCWfIArWQiUDF52K8ACAt+nRae/nX+oHEU2SBU5uKaSo7lbgzVyAoFQ4KVLzoCwkDPntI60k7UOjgCgc8ujT7acyDxTykaarBWg+S5vuCNPxERbZXMRADi7IDKUcQkICIs1CU6AD1Bj3nldtzlybuRO5poWyj4HYhzTAJjAQkYD+PPGTpmDuZCDAZQEaN93bzEAOANosku/kXHn7Y10Tg+C3ZyHm8jdOQAqgmnu7EKQEzBS0jRvtk5+fQPZFHiN3CaRZdZexMSe2IK1hpTRE/nSY94EiaAhXuwLJqRVMcCkT3MVGOjKb2VoSCmCiigJZIIIO4MFXZLDTgC7Sgpi5DxIF90hKZkH0PWHrdYGAhFiiuCyIX8bdAPbyI9c4dEQkXNd5AwJZm/0g1gL4MgMHIhs2Y151RqQIeK+i83nZT8wUiVOh1PyNH9yg31sXQBHxgQlPo1gC3BkKjOGG/BDEFNlk3zwA8Qot4iQTDae9tfsDUmQtQtgCEffgFXsO+2gHSOgwue8Kp18YUvu1dMdn0Io2a+qn7khCMgz2RkSQWuVLPBTgZk84S8yxd/ZA9uDi/ncbxFB5/aOBHHBeenTIGd4JGbk9hA5kS2SKiEwJImICRlLjPKCNd/5HWIagoBYuAa5k6GYl9tMXbkh/PAht0CRNzjBPlxzn6ggAPe8aIYAQhCAHiLASONYhOnfSnVAkyJTARDsORSjyQBEQyWVfM+gPXgH6JTaOLWAlnJYrpvXyM4lCABIZh6CIIBYM5YHMIF07gUyYGtOiYlTK20jBqocmGxArEsQOAtnTa9255cBIQwycOBKvgFClQMg6XMBLf3UGd5QuZ/hcSrBWIACJqoOgI1xIj8A2nEcRenQGoGJz82bzPOQZF6iJLOpDQFf8JKVZ5gv4CkJAudFphxvbtY1RhCcx1pkGuQks+Dk9Ayw6CjOzP7Y5RBBkC07H4KAyAAG5IbMAEr5khfXRghrBIE9yFicA1iyfQPxo1/BMAA1do8XgDgm/oTcAVwyBH4ALeXv2HxNH46XefFBwZV9DxEE12G7ytKyQ4FEoBbISoKAGCAuyBeS7NxdPywJgjWpsgFR10BCyJ2dIdZ5eZd18HdBQtBCKsjBLQS/5SOOzTtI2Kbgr5I0hSDIbhEScyY7gZCeEe4pBEGF0m/ZiYCKKJCBoMwX2WHeJjqmG7Zn3nkOIvPn70MEgW2RR5cg8Gmy5eN5TwdMMyf6E9zhtUClusHfBHHBTUCEewK04FsjCAI0wlh2REQM+HZIV5cgSA5yOxNJgEPIUJcgKPfDIH8bcJR8kHN6l6GHIOQ2LUKX3VZ5bqNLEGC4YF4+f+NY+FYSBAkhoitpLH3YsUYIAv07l7nA6bzyvUYQ3L5ic2xdoofIkbnqJuJDF8Ea+nPcXneLQfkeoxXIAAwQZUhAmXNhQgyEIoGhIMjRCZtBcywBCaADHcGdwBmp82HItQGgGJnADzCwTyDmPAyawSq7KzvK1H2+SgWhRhCAlWszNIRHRs9BMVnGorICHAQ7Bs1oADKZYZgcuawgyLw4DHkK+l5CkhfJkCUgxobJhJzcY+aAQIMhIQ7ICZkODZUa8qYX4CdTkiFyQCAkAMhwkC5AhwA4pzUwUs6nuoBtAxbnM+/aWzPNhZOQkbVxAkQQe+ZkWyUIzi8bFpwQELJI6ZsNeYjPnMmUfSJsqxAEWaFgj4QAVrrxTAKdjxEE1TSyRhhkG+YJdMybHoE1Mjk0yAmQ8g+2JMNS+QFo/s0HZXF0goQCjlET8gAAIABJREFU99ozDuaAQAEhpWYEfYggqA7xLaSCDbidxn8FHfPJi6LYs7mwVz7OD60d8MMANl0SBHoCfmwDuObNeK6BcPIl8mbjqi6ycARE1YoNOR//tGYBxv/ZF5v0u/KVy13ZlhUEQYbsZJrWxObJI6X8sQqC+QVzsg6Vg+xaEojywjoVPtep3TZLJk5/SBD9+q3bpX0EgR0h0ggyucMkJCMVBAEnLwNDRuEM+2VzAhEfVO2BH/wc9qqe0hccE3QRrqEKQp4RcU3XMJAM5FlQZftuAZYVBKSZjbDBJD1Ib40gWKfbNvCKXuAvAsoWQxDyhl7Yy+7oMs8fdQkCHSCV5Cw58hIv2KH61kcQ2JR18B1+TC9ufSC0PoMrbI/diXHODVdrBAEhUKlCBCUl7B2BEx/yEjvzoRP2iRjvdQQhb4LDQhkhhQA9BIGgOTIGi1UTZt6s6H4vwAFOyTD8lnPIVgVWrD7ssw84s9XPrQggneDDyCidgbslwKCwV4RCuWrKuwVUM9yXk90weutAQpTiOA8wkq25X8VArJHBMw7GJijJZgwkKW8iBKQcDlHIg5J+Y3AyQdr1OLpruefL6MgrD3ByKsChVA5gGZHMJdnB2E4Gc3VeoGdbnutg40CcA1sffQk+gDL350LYsF3OhCEDFxm5qsrYoC9OiRg5B0LlFlDeROn3eTse8sAhkBTgFNCpXYOt+S2bQr4iT2shb/LixEDLvFUzOKUBQOglb0b0G8+vCHxsiQw4r+DE2fPWTOVAdkF+bN61ObO55EFRRICegaAMjV1YF1LsmoaKkcxrbNuqSoGASX+G+5eum9J1XmvNjpTv+UPtiXvB1W/pL69GB0y17YLATPAXjJ0TgOXBKfadHQZ8JnIVmAQ2JWE+IQjxRd+z+dipLBvphQPmovon0ANZt2roD774t6oW21UlQswFBvMSlBEWJEmGCTf4+hCg+l5J2Nz4EbtwS8P68iZQ5+dfCPPYsyL8XdXAOgReOOY8hvWpjmTXj+vW5oYEOp6/OF6wZzdsi8/CRccIWHDF9wIs/bk2+4RfkiFrI0fy9ByFtcFmuAhrJVD8hk+qDvk/H5XMOT9ZqhqwaTob2u2iQgIHYvtwGcFQgUD8XB8xz9s44UmehyAvz1eotJIjEgiTDH7hNqfgTJ4yb+RKpZEtIU7BKse75ZtnahBpcSevMIfV2c5Khs6NmPu3+MVe+RebS/YeW0cKzJmO4YI4grCQLV9QMclrmpFg54NbsYE+7II9iJNrkg0MQizNx7zZn0qa2Dj00PEY9ta+3/hDirkwQ66VSH3HGcYcrDzX1OMBHAfou/bc664q5NoczMvoAsGQrJzL930BcWg9Q+fsW5fr5Ald39euOyTf2vqG5Ni97qoyn/O7VeY5toaazY3Na0ieY7/N90PrmSPfVeTStUFVFWCsamj0+bjr+HzI/53X911fAZBKxTKt7AYZkuFW5btVzFiXbshyrn7G5FxbW81m5soSAUDo6SmkdcwezdkxY7fXSt+o2UrXf8bkkePH5tjnl0O3v1exoT78niv/qfhRHrdtBGGVyS2/WSSwSGDvloDMUgWkfC5jnSvKcwWyMyX0qUnGOuewnGuaBFLxUR3MQ+vTfrkctVMSWAjCTkl+ue4igUUCiwQWCSwS2MUSWAjCLlbOMrVFAosEFgksElgksFMS2CsJgoesPJThgZh1P7W5U4pYrrtIYJHAIoFFAosEdpMEtp0geMra06xb6Rud9suezK9tBfJQh6dVPbGenvBjbxn0xKgniT2NWmsIs9PK8+SvLVu1p/Y9Te6BnjkP9cxZkyelbR31VO4y/i0BDVfoZKty98S1LaKrvH3QHOyYmHsf3u4buwf2teGJezsXrG2OTGCH7YKe5F/nGxz75Gu7nPltNdGxpY5fejIeRtidMOX9J3N0bieN3TtpBDbntzmWjdrxYdfA3HeNrHK98jd2HsBOWz5rw+4AuljVj9MOfqi5GYy2+yO7qbpzkQDToRhUs1vf27Vkt9smx7YThDRKysua5i4u+7xtRxt6C1j6tNsK5De2PpUdrvqu6yEaW5ns02ZMQ9355s57XcczCNvTbJnsG7bh2N6V7aLrum7OY++wfdSeRl7GvyTAbuyn95Dc0LbbKfICwOyv1nBm6By2E7LfOe9vcD7bsVTk9rUhENkmZ4vYHIKAVPAzuhzq/rkOeXlgz/zGtumOXcuWan4JF20Btu1RX5d1DlsGbQeXQK06JGFIjO3A6e666rnm/s7cbRW07bU2bC3Wd2BVP7Z9FAGwTbU2kDlbTm3f7Rv6THjo1m6PGtGw1V1MG+tpM1dG3eO3hSDYiqTNJ3IARPM2R4LU3ESvAHtP8ypNDTewYRUCTFhGJVgDYl0AZQb2qdu3jukhAJw6/RE0CbKf155s+6b1UrDVCvD6nCPZS21OzqlBBsMx7O/1e30SxrIqTE9zHfu4gbLzDpGKrMdeZdex991+WR3d7PcXFLKP2PysSR+JvMMckFs/A5bZkINtZLa76MfgBSfmbD32g8vyyUQ/cHuNXYvMNIxyTUzZnMfeKGZPuXVarz3QwAhBoD+6cg0VIYTNfmPzsic5lRvXMieytyZPtrum44feqOe6Gp2QgX3O9mEbmqtYN1mbv/XRgeOx7rRa7asYsRXnNBdOJiDbo89WsHI6yZs47dO355p8XTuf62apZ4GRt4H6HjDLjKyV/qzRnOwhN3/NffzbfB2fngL8g3zNSZ8LwMEW2IT93mwFmGq0Uxv2X7u+3hGuG1vUz4B/sW92ncyIDOwXZ7f6VIQg6AzJLxzn+PKtpH3XZlNsgI74r/72fIrOVUGAnH4Gef+AAJHjamuRZSLo9EEmZGVNeh2Qawb5mSPZ5S2f5Ms2/EbPglUIguBK9vTARsZeFc0PZHNsX8CXofIB8iUXn/GH2DocYD/82l59BME52CD58G02NJap0yvZs2lNySQFCELeiaBXDD3QKRsmo273xbEAwldhDoJlD7+ghCBYF9ui//gmm2Hvjrce888bTelO4DMP59C3hU2r8loDG2cjeTNl37zygr68HVS/hrGeNY4lVzalDwjdIAjmw4+twznYi7noISEW8WNzgXnsCWazQcelNXvfHGETWcEVciAb+kjTI/0PXIfOESXy4Ltshfx8prLCpvVHUWnQpIx8kAV+7ft9hiBYiEXrcgWwNZ2Q1ac5DGH6t4YUms1gqRTDqDX8YeBuSSjF5U2DOsYRGsC0t1aDCAGdgxCs5huMmOIpjMPrCiYr0DBJswmBWAB1fQbguJQTfQ/Y0mu75kQaYGh0I6t2rIYXad7R9xuskDMwWoEMSHASGT8Q0fHLZ8CczJQIOY1MiONjp+SoeRGwISeGzMjJWbYjk2XIzqHBBibLQBEEw7qAVRoNATZrrwUCJTNOzjg1SQKams0gCMCX/DFz+tGYiSw4rgoOYGX8jFqw5Zi2vMl0MWh6qW1/U+blzBzKWlxH2VfAZg+CWhwPALAB58q+ac7fB7DkIECbG/IoEHE4gRIYAF225zjrYCOAFqBlTXSFtHJ6x2veAjgEQjbHDjRIQX6dy/zJRftkx7mN5W+ElXzomq0byrhsxHUBlXn5260Hv8+7S7r2xSYAbwCMbaYvvGod2+A/CCQdCEyazwAm9oggCHCIJt8RiH3GXvI66u41HcM+ET3Bjhw0H2NL/gA/9kp2kblMmUzIstbuG3jyVXYjmNKLeQiCdG2wW+RMNsae3bpEqnT2JGsEiLzmEgT2A9T5k6Y+/IRca0NwZkds03z5hz8qOcDduWCDLp7InwZiMI7skQhk1npdz7XIPm9LRChrL4wTZKyXf7AV19TYCE6Yh0ZK/NbckDYBUi8KAb+mz+4a6Y9Nw0zrgKEaLpmjBkxslS+TveDrWuyHPfAvPgtb6BvGS1rMw+/oiV3nHRTWgoDA7xpJyAuvXJ9/++M8tQRHUOVbsMvf5qOpWV4EBmPYKd/ir/BG8qP0z4/pS4bOj8kYDsNXW2trA/6LKZqpWTMSxSfhn2uxW+djD2whLxjTaTUEk9+ai/kjMkiLc7B9mCZ+7jMEQRDAKhkRcMgtBkqlDELCyLSKBC5eoCLwU4bgSUHATBBnjLq7AR0Aw5CwNFkTEBas8x542QfjzvvEdb2jJIMxIBgMnhMwdk6Utw0yaCUmAag2AAJnAFAc0bk5pnnVyoXWixgAb5mRNXM4xsKoGKQMFssnLxmQc+lYJkMHAAKEZzAApvlyNmsX0Dg+WXFErWkNpElXR929OApZkZlzW7tjdbdDuvqGIOYeNX0gLLnFoG2oeXIu5+UISIPqhDkACZ3oBG0g53eCSbqlyTwAb03GgJdDqTYJANbHcckHKQKyAgegFQzIEiiyF0G11njHecwNEAlQurrRBaenO3ME0JwR6NKP4TpAhg1ai+twVsE1b5nU2lX7boM8fQ8wgKX1uLYKCpJjXcCNjKwDwZFB5BaDAOCabFEQcFtJS3BBuDbMHflwXYEfqJANMsxeXIu98C9dN1Mhyy0G+hP0VdwESvZqPdbcN9goH2K/bMn5NSxCTNkc3fJzcgF2CAoQTHZVq4g4F/8lJ0GBDAWDPJfhvLrtuTYMUEVArkMQVCmtdxWCAH/gA3tmT4I7wlardOUNmoA8lTp6hEP0BcjNMx0MzRWR1gXPyC0G9qr6wT4QBn7j30h534CbEioJl7mVtxgEXXMnD5kvG3BOx9PxUHvp8loSgdic+SFMcIXeBDRzgE+SOEkVXBO8yV2A4xtsX4BDgK2ZXecWA3+AR5JD1UY27ny12zrsAu7SP2IF//hpjVDwUZXjdPcsbzEg9/zcH8kN/xR403kyfuw4PkHPgjubzMvz+vSiEyNZScwQBLjrbzpAoNg/0qvrJ/lJQthDukuKldaoysYeDHJyfb5gPbBTYrFP3GIALppiBGRCECyck5cOwKg4JwOkDA7HsH1OqIAdiFOAEqBgS8icUcAiOEyPsSIdNYIggAHdvHMd0DGOvAQJOAJbTl8bFEThiEtepAEUGaP/9w1OLNipBBiAVMAs30lPTozE/NKCs48gAF6BilwcG9AR7LsEAWByUkPmLRvAUg3PLKQVcN+cyRXTTxYVgiDDy/s08ju6pQ8OLICbG0MHdMrogoffhEBZA6LSN4ABwgQA/du6zIEtmG/5gI9zIDDAHFgNDc4G3NLmWvBRQUBkBWNrNW8Bmx7pyPA9WwQmyCaHJXe/J1ug3CUIZEVO7MmtGUGZjVi3AMa+EDj6sT4jBAFZBiLmYpgvcBh6jqYkCMARmCPIQNocEEny4XOCXoAVQZDNxj4RUcP9WOSlfIFWKVv6oO+y+mTN7BW5d21DsJNNk4GKlPWzkVrwMzdBjP+SB92SVYIpkkw/KiMyUkGXD7M1pGtVgkBGqnzmDdSRXYSKDmrtyfPq4byF03rNSSCmK/o22Kz1C45kJqkwsib2RHZ8E/4h3khK7VkjgUfFk/8afQRBAuNzsldtQVZUV+lnyiBfv89LkPIMgsybbZX6g8EqFIIw3VovnKV7RMWtMnhePoPAtxGZ3N41J7qsZehJElWrrMfv6admRwiReBGcD0FAfPybD0pyBG0YA7tLgmCdfFZ1xPXgBD8ZwpguQZC40CnCTucwJL4t3khSxLrcXicDpCUEQQKKeCP59Al/YBjCvE8QhO6b8UIQADzjo8DcKxb4KaokCAwAeDIOgU8Q8L0gKuvH5hgVJ8CWKZRjA7eSIABqnxsCL2YsU0qQxCDzYIlqgCAwVEHIqzoxQ0EFYZHlux9few6hSxAYMDCk9AwyAHYAHkgYZGgtZQXB/4E3lgkUOS8QFUQ8nBQGnAAUgiCgMVKZkuF7rB9w9A3ORG5xshAEIJPMs3xaWqaEActi6QvT5wAcRBDllPSWMfS0MMC2Pn8AtjK6eXKYcr7OoTy5CkGQhai8dAkC+dO/a7JJ66Zf5DNytza3GgCMtbHTzEsFIQSBPAC9DIu8/c5tEvqSlSG1IWwhCOxIho/08hkBkS/EJvp0JfioeAATNmFuytTmLQtC0AA1sHNcXrUcPbIzoJgqBWJvnrXqElmQkcpAab+yrpIgAE2+KUD6W6AYIgiuyV6tn+wFAPoQTH0HPPm3rFMwVimRWLCRGkEwv7H213wYCKvQ5bkDFUvXrD2Uy3+Rej4Vv4dVMMntQvrMezT4NTsQFPP0eQgCf4WJ1sGefe6lTTWCwN5jnzWCgNggz3RtboK1+YQgjLVfF+D5sSzfCEEQ8CR3Aln58Kd5k7FqkQCmoko+bvMgu2RSEgTBNu86KO2ntqODf7meCoNrIR50VSMI8F31U1XNCEFgO2xeoJZIkqXjEIRURmEMH2QPkkeYar6I67oIAqJIvvyi3I1QEgR+5HaFpIZs+XZur5QEYW7b7SkE0TEbf0iRgTI02ZXASxEEzqkFTCxY+UmGyYiVKxEA2TlmqTzHMAE5Y2JoWF4ejFIGBiayGEpnDEqzzh2CwJg4GvCWvQA+ApctMDigCziTyQuGMrYS+PoEir1zUvcOsVnAhaDURpcgWDOQBuRAG5hzKvLiTKlMMBj3zlwvtxjMl2yV3AUcICQQIx1uCwhO5gXgygoCADUP1/DsAgcjS47QN9yHdg2AAEARCwQLYNKpIEfeApB7zXnlKFAR9DiBoAiMAJPKC8BVakQ8aq/bRdjcSgD6Kg6YuCwNIUSUrIlerYf+lJjXSRDYonULUgI0u2WLQEIApSfzd6vCvFRw/FuwQC7d5wxByANKsgU2ogSrhE525g5AgR97UFGiR7YPlFwHqMuqAOPQ7pS8eQ9RoBs6AhzIi+AkE+Q7wE/wQBjYL8ChZ4GNnmWHQD5zqe2KIIvcW0aS/Z7MEIqtEASygxEIJgIui5JIAFLBFYgLIjI6IMmf+YC5sEHkvXuLAfjzNfZZCygCKTkJzBmICeLEbvtuM7BjcsyDbvwSHrF1shT0+Sn84TsIOl+lRxhjPv+vvXvdcVSJgQD8/m999P0oyfLSEOZAhkmMtNrdJPTFl3K1od3IBdxjw+5lF/xG5m1FEMgDRrIxvpK2vYOQRwyIe45U5p+wkl8am8wHXLVQWuk3GS59IMHswWIGrgiU5Ay74bo/8NU8yAOpF3j5J3v3+EB/grJMg4wJmbEXeC/YI1Qwz6Jk66J7BAqZ8lsy4nMrfbJPGUckHM7zYfavffZqYQRbzEv8YCPw07jNj3zJStaTDxo3XLiSILANixOyga90yd6SQYArdE2ncBrWyML1DILxwcUVmX+VEPTf3U4QdMhABFApKyDIOfICGYDkCACRUjg9g2HoVp2UyIhyAQttcRygCiiAA7bIiD2G4BQyCoCcw0kFMyQAj4F53sOgrcoELgaXVa0VDnDjSEfP6oBvxs+IAOveiti4pcdqOskKCPBzVCkoziijYvwAl5wwf3LAgDk54PQbKarIjiFjw9pDpAQvc5cuFfyT6iTHnIZnrNomn71LwAKeHBHBsoIIcCFk3ufwufGFZAmKVt8CVS6rQU4myFuhCb41m1DHkN9q21zpOmlezkHuZASgECyAwV4Qh70LKWIHOV3S3AA/nXA8JMO4ALsXEIESPQuqwMu/gSTgo0tyJz92RO7sCggJKOSeMRurU9/oBzkTwNgX4BLUAAW71SfyapWtTWSVfbPZo9oTsg3AjeyQg7znIggB7Uou2D55CbZS2QEW/ukFUkCIUKxekouMq/0CefIXmPhj3oPRvqyLAA0A2Tv5r2qN5LRCY9GGcSJdcMRjoFx05HvAapXlPkHZfAGuZ7ZAn+3IOLJhZGLVL1uGQ3X7nUAnsHgnaVWbgrxhjRQ+kmI1SI9ON2QjfJrN5rhzfsF+BFT+yx5cUtl8ngwRNvraq4chyBob3/Y7WEEHcIGs6Y5teUQDF9kifJVWZ8/kkBNDVz7DV92PrPJZfWmHbeoHgUMw6EHbZEjmxiO45fEWgo9wkAEdZm50Rna+gyn0szph1Bi1I0DTh2wEu96rWUMn2ueLMmnGZXFKzsggYiC+wETkHm6xf/+HZ2RKRoiEOEHmexjD1vk0cgGrLYbgMiJJV2zRuOk/20W1iezAId/DO/gGW4xHpo49xV7guqwkMsov2JZ+EKKrr7cQhDODZnj1EcOZe6/4LWUAa2C0twXvir5WbeQZH8dDeqw0GNHRdqs7xzRtjwRGAp8hAYQG2cwLvZ8xq++dhcWsjKTsytXX4wiCFZpVECa1t9/0akFoj5CtGDHFo/3fd/RfV9pS71b/WDmWuHfO+p1jmbZHAiOBz5KAVbt0tazCTysGfpZE/vZsLB5lN++IWY8jCH9bVTP6kcBIYCQwEhgJfIYEhiB8hh5nFiOBkcBIYCQwErhUAkMQLhXnNDYSGAmMBM5LwEtsXnb1MqcXaVdVJs+3PHfcLQEv6npR1kuz9Phqpcq7x3VF+28nCJ572aqoYNBcz5SAt2HtbrD9p1/eVrZNqBY3eeIsvIGsJoS3l/M2cX8j3PdeiM1b5EfzsNPEzgMvsB7t/Dhq6x3fewPfW+F2ZqxOjtsbhzel3W/rl2ecdffHO8b/LX3YXcEG7caxLc+7V+88DM2uD7sDbFF80oUoZffbk1/Qth3bewB2MdmhkroLT5LlT8fydoLwf09z/OlEf/s+W2lsl1nV0v/t8dX+bQ2yBWfrhD/bObO16klj7mNRC8C+eduybLdSD6LXerBVyrawVLY8mg8g1a6dJT85jvmo/au/t5qxZc+WyqPtilt92+fufjUJbPdScwAAznWtBBButUlsueVzyEGtrrrXW0qSq62wqplwNFr9qt9iq92TLrU4kHi+a7voXZdtg7YYr0qKH/VrW6Ttrbap2h2S7b1H9/2F728nCHYl2PNp77hVjCAZVghore7sSbU/1l5OhTTsJsjhNfaA2+9p3zSDURDEvmiZCAC/de6BvaP2/6qZwNEo30rRPnH9AXoB2+6Afma6ParGB1AxQWOy/9/WR5W17K5QojbzMh5nEVixprohh9MG1qtv+1qtDhiggkjaMD6rcPttObm9yWRkv7agZuUmCOUEO7sZFLfRXg1OtiwpnqG4i22R9n/b79svxVjsW9a+7I12yNnq0n5zckp520oQzNO+ZvPXrz3FiqwYowIe9uvSS0q99n6Nz24Mq08BC9sme8HHvfSNjKQgktUU2dsfrl3129VKkMKzLYvc1GEgS5+bj8JQ/qYrdpNT0RAEtSXsd7YX3X5pAGy1pN6FedmPrQCVrAA7IxP1OuxlVwtA/QKyBcDSvqptsltpRHZtvFZ87FOxkn7Zs60mBdtjd2yW7bJRhbjUb2DD9u8rjqWuBzllj7kCKfpVBElb9lgrnuQCSGRH7+zIPeovGDs5GHslCObOXslKe2TeL7Zo7zvbZ79kyL6SiWEjfuMwIhkVwK1uxKrQVtqXhtU326RHOqZDb9Obl7GYC92Zf3DB/NmqgmoKhpmjzIj97/RkHz47MTeyVM8he/TZq73k5sF+6DEH79jLvpUFkjWhU3VTcipsSprrN9Un1XKAWWyRPbiHftm3cfWTRGXl7JHXJ3mqu6FdNsa3yIBNwAl/zJeN8jU2Tz5stT96ME72pFolHchEmIM2ycZ3cM54EAC7ofxNZup1IH7wSjlttRHglkJIZM4W/Z9fwAHjMude6ZAv0xf8M141E8yPz8Nv2IhYu+iQv9JRDuZjA6kd4DdwBS6o9wIjyEn/xsLX2Ca8gUH6VSNAPQ/9+526APpQ10QfMIAs3QdHyUadAj4bXzA+2Rvz8xlSzA7Jj9xhvMc/MENcgSV8mTzpXa0Ic+DHqVfCJ9m8+bAbYyY7hF121lhhlj78G075Xa1Z89sk4naCAAw4o/QV56Awjsr5CEYgZJCKQACt1LXnUIBTdSgKoFQGGge06svBMF2Iiqb4vX2hlMH5BELKAK4cRrsYdy8UIjgyFGPWl8pnCneoyS9YcyYGDWg4I/aoIIu9qIIaoFLUhrIZrrkqmELxfg+wzdcfTuBzzsRAzVmFL6s0Bs05FMoxV0ZuvFYXdcsjQzMX2zONi6EKXPXijIgJEMnJgCpTAgmBkUyAgL44FwdJBsF8OajHQvTBERUvAkaIkgqPxuNzfafGfPrXHj2rvoiEqKimL05ED5xGMSXgBMwFBIFN0OaIyAtA1b+50qn5+QOkU1wK6dEGO9NmMgjmnWOHEVRzZWt+r4KhgKeSmXYRDr/1eEXwUqxLNUhOrn+Aax4CPj2zD2lFcvR5KiBW2ZM5W/A3Mmq1KB2ZIjWCOVJq7MDO+HwGkNyjuh5QJTM6A0LZ7wws+Rf5y4SwVfLjQ+yE3kIQEBr2w1YQGVt5yQoI10ugIx/EQKBh9+wKCVFgBtixTbZCr/xL0SW2vHchXvrXDrm7X1v8nx2ZmwCv4BbwpkNykLXwbwGLztxHR6ot8i1zUMLa3MlDoCMPOjQudupvRaoQMvpCxI2XTGuwA9KChsDC5wQZtkfv9M8Wc5CQAA5j4Jjxkjl8QWjJPQe/RSYp0mRxQEeKUAmgiBx5C0yIDF8gc/6kTbYBo8xLn7J3dcw5LRfGCCxsMgsiK1n26/EQGcFLpM7cLMoEXDqAj8ahgp8Mp/4tBBAdtsaHZH7JlF+myFjmBhez6NA3u0VIYAOCwI9V7MyR5PDZFSwxBn2nTD2951Ar9mthhDypvIgAsllj4U/0rn9zsXDkK+KEbeLGDHPhBhmwC2MXxDMXOCzQs20LF/2yD8SPrfIjsYDM+DibY0vkZz7szxhlYJBbcxcHEGe+TN/iCZmaI3tkHx7bufzNjugUJtji73dPuW4nCNK7AmxKEPezGBgg4Qg6qtCF3TEezJNwObWVKHKRMpyMBqAy7tSxJ1SFjiifQXIsgYiiOTcnEKBcQBpgCIbd4QTHVKXiVP7kVEoGxCA5CifQn7FxenO1ImAkAjbDYWjaB+BWn8mMaJMDp4IdB8A2gD4hAAAL3UlEQVS+GbgAZNXA+QEigwMM/dIvg2O4aQd7Z8DAOxfAk62QqvO5bIVxYsQCjPkIeMCP4Ws3BAGBAVqA3JVHDIo3Ab0ctqQUsPFrr17G5lliQMHq073GmRMaAbXfmTM5CmKcFnAAAwTR2LF3+idXDqgqo0NryAd5AUT+T/dbBEFQEHD1I9DWRwzswP0yLUgTZ7XiELx8To/1EYMAxa6kQBEwKzyBjO47QbASQRL8TnADMuapPUQTMAIGtiRQkDHdW+0gXT7fIwiCCFJKB+ZlvC6+FYJg1Qj4UtlS8LOK7yfnkTdbZ6f1EUMlCNq2GiZntopM+Ltn46ocQhCQrRzPzKajC6DORpAtehGQ4YbVuUBKBu6TuQDmiC6dsxuYksdEyA+Z2hMuyPEFGSx6hDHmrJKfrKD/17Q8YirIIj3RkwC0RxAEdeMNjiEUKUvciZexIrY5yEgAoQ/ZJTbBBwU6n/utsVnJ8ldjNn/4ULMIcMMY4CCyzNdlS3OuTLK3fEngtaARKFPv3+JGYA3h4vt+Rx9wFG6yPX8bS0hanVsIggyLIGnFbex8le9b2SMm9Gs89AkTkSSBm+0K/mQAz9xLN3RYCQL8z3HfgjwyA3NhFlyjZ/Ojr1TBNa+cSGpcOfzMZwilAI0AWBBo30WGSIUYwMYtLNi4WIJo8XMXLIM3cDTvb6SiLTxAEnPgnnjDruADrNavhWGyjuQu/iHy767/s0dGbicIsgJYFGbpCkEgVGw7gcd3hMVhGLdgw+kwOEYhmFMGw8ilLas8YJdLX5yGAQhWAAcp4GTaxt7q/Zh5LRYCmI2VQbswTIYoEAA57XAI6bmwf7/D+oCOPhgBA2NomKPswhZB8DsBIeSHoXMaYMbwQxAYPmDsl3kyKEHEysGVM+x7TW6yYLwJylKTyuEam1VaHn0I3oJMCAKgFFyS1g5BkN2QIRHYXHQATK0Y6kW/HDNHC/sO0HBI8tEXQCVLji1wInx04PMceiNFbfyAA5BzVDYk4AiIAIfzW8UZ1xZBAL5AzGrLFYJAD8BVhsOKQ/AD1saJGGROlSAYC1vLISt5tNNf9NK2PgGXC1gK1IKbFQuSSD5W1YJcUsyxv04QtCFYupJBsJIBRHVlB1jpMAQBWAO7ShzZa7cTduB3sn0rgiDwAj8rRAGDzQsyPa1e7SAEAakEjOzHIxJkjA3Qd07MhAv8KX7psQR/YGswwbgEEeRCACAH/unin4K0TASb9DnSR7dIoCtHtbOd+piFnrSbxYGAdUQQ+CAsqPZNhn0VaN7sWoBEpOACvJNFQ0rYAhtKaXEk2VyMBQGAEXyRXdS35DtBkIWBKXU87icHtooge6ygHb6MOMjy1XcQYDYSxnbNxTgs1vgZHXcsCkGQWaJLPo+EJDtLF/oxBuQopzXyCZhHr2zJd7IxMj7If+wvGQRBH1lx8RuYRPbwEb6yQQs3qf1aLhsmmEdOYXW/uAJTBP5KEGAS/DX+ZHBgojGzDThaS56LRxZROfFSjDIO8yAnssyV7Bn8MWc+YQ4ps/wPwD/gg9sJAsUDdGDgOSDgEfwZDTCkfCDsAuxWhjEMDsEAgHGe4zAGqTYXYKT4fmHHnC79euasT9kIIG9ltrr/VYLAoRiCFTQnZVBZ3Ri3z6ScGQhDYETITOpvyyCEIJCLMVkFCGyAzEruiCCYA8DHaAG2FClnxtCtsHKRA5li62QsGNOHVVoOc7FCsPLoBIGOkCppUO1zHnPGdgU0q3cX57cSJut6Ycqe37sHeAi85EEXgMnKAVBwEhmhFUGwCmcnHBjICXjuARTkBFwAi7kjAlsEgb6sYrB5gCuFShZslL0IJAI3JycHBMF8BRLBlH5ypru+2KLHQVZJABVI9MCwIghsVBrUahfRAT5+C8QBENsRQAAJQgEYBRhzNUfEl684Uph+kR3jyctcVvTmEoJgPsigdnPqntVjP8YYmFrR5fksOdJfzSAI8EiBP+ycD5qP4MGfBSkBqhLvVwmCMfONeuonu5JNsCDQJr/nH0i4IP4KQUA0ZePYl7EGC+pZIOTIbxAPvkA/7AVx5dsySvTABnPUPF9nRwJd3v0JjlU/WBEE+rEAkQWSGUAUZZrYN9KqXzphe4K0fjx+yuW35o8UmZtVrWwhkpfxIAPwiczOEARYxRYsJvgu+4RVPyUIfCbHWCNJ5mWhAFuQNvOV4UH+6ecnBIGvkjU9sSV+LkPDR1cEIQcz5RCz2Ajf4N9wACmGrXAuJ7bK6vBFC9gsUvmh+2VI6YutslnjEMPErrwwDIfYDltnd8gHOcPcp1y3EwSARDEUzgg8zyRwAVPgB1xWIcANGOXZjFUtdse4c7CTFQZFYP0+F/C2Uu+yB4AUOxPABAFsFit3v74pC+AkHRuF7BEE4xcwMGarW4wfkHBubFSAAyKAyJwEQykzjxsYPbDH2v2NeYYg6BugWi2Yq7EBKwGNPBjZVgbBfX7LkRmlsTNiIFAvAItI0AGgZZgYuqAtaAAoY2WoAIiRWtUaD3BActxrJU3u7g8jB/z04D6rn5Cv9A8s6R+ICV7G6H46Mi/BkA6QBHoSaGsGgRzJ2wrZWAQngC1jgqBox6MDAT4v19HRFkEA6kASOeW0xiyNSg8Cv5UZ4BLgtMFOkShpat+bu74EX6slwZz+6V7QoPueHlwRBP3kRTv2Y25sJCcBCvyCFxAyboDnj9WZsRgDOfrMXN2XA7/YjXnyoRAEgSyHBllt5UAj868XcsWu+Rh9m69+EAQ2pg9AL1PCJuhQwDUH/pRDjfymXkcEgY0h0PRt1S7wx+boFvHiM8YF7MmFvI3jFYLA1gE7Qsx+ZAb7+0cIMHkIMABbH+zE7/3Ji7jmCleMMTjmeyQkq9lkeSKDFUEwHr6ZhQ7d6YffW7WSI10iLTJW7Kkesax9PsBH6Bq2yJjKuMav8+KpdgQ6RLtmEPzbqja7GOiCrmU5tJnFFt/13RFBEHARkhwTze/1QW/m5tEBWZMvvYTI0AnMYW9IUCUI5qBdRMi1yiAkGyujyH+0BU/gyoog8Ds+zrbYPqyBBcZgEYO8ixvGKkMRu4S1dER/5shW4B1CzRcsGOCs7JB23Oe3SAYSAJdhB9uAB9owVnJ/ynU7QTBRKySOY0WE1VUDp/iQgA6ulN2dgWHliNK9YiIA2+84XjIOxoJx5/7VXvbabx9D/06ANu5aB9uqiqEz/Mr2rYIFFp9vtWtcjMyq2pW5b8mhGhCZGAdmutrv7jdWjNrXf9oWaPwR6FZ9MmLzydu1VSec2GoW2+66qmP0OzrJOxm+c58x6TurzT15u9/vyafqVGqYs7GvLZl1nbFFqyxOnN+zC8EQ2UkKN98Zp6CQ2g+1D5kXY+HcW/PX955cBQTByOq73o+MkgmSkncQgAj70SddAMF6T+zOOCOfLk8gTZfAc/VIgL5lU5Bb7W/JVBqX3SBSGYe+yC9Ht3eQO/KlOhf2irQic9kD77Ok3H2+knf9vPbpfmSG/eydGMjO3GdlmEcMZEV2/GxL9nDMd+x79Qx5hSs+R0phSE4mzBzoQvCXwdp7hCMwaSdHNwfn2CWc096r8q+/Y1OIgYAfPRzJ/agf2Ufj67VUuq+wnz2ZrfTsPpggE2vc2enW26p+6fd8jv26YIHFTuSZvtgQn7VAYef53Jz8u29PNU92od3YBVtBGOgm+tYfMoZwP+ncnbcQhKewoRnHSOCvSaC+g7D3EuAT5iXrIVsmk/YJV30HYS84f8JcZw6vScCjH4/RkHePS666PC6zhdfjxL2F1lX9vdrOEIRXJTW/Gwn8ggQ8P5Xq9xjhScCxJYqtFeAviOyyLmWNrP48kul7/y/rZBr6UxLwaE620mODmsW8YhJHmeIr+jjbxhCEsxKb348ERgIjgZHASOALJDAE4QuUPFMcCYwERgIjgZHAWQkMQTgrsfn9SGAkMBIYCYwEvkACQxC+QMkzxZHASGAkMBIYCZyVwBCEsxKb348ERgIjgZHASOALJDAE4QuUPFMcCYwERgIjgZHAWQkMQTgrsfn9SGAkMBIYCYwEvkAC/wFEChKerjL9uwAAAABJRU5ErkJggg==;" vertex="1" parent="1">
                    <mxGeometry x="880" y="1010" width="450" height="91.73" as="geometry"/>
                </mxCell>
                <mxCell id="84" value="" style="rounded=0;whiteSpace=wrap;html=1;" vertex="1" parent="1">
                    <mxGeometry x="-310" y="860" width="210" height="300" as="geometry"/>
                </mxCell>
                <mxCell id="85" value="" style="group" vertex="1" connectable="0" parent="1">
                    <mxGeometry x="-300.5" y="985" width="191" height="60" as="geometry"/>
                </mxCell>
                <mxCell id="86" value="" style="rounded=0;whiteSpace=wrap;html=1;" vertex="1" parent="85">
                    <mxGeometry y="30" width="190" height="30" as="geometry"/>
                </mxCell>
                <mxCell id="87" value="SENHA" style="text;html=1;strokeColor=none;fillColor=none;align=left;verticalAlign=middle;whiteSpace=wrap;rounded=0;" vertex="1" parent="85">
                    <mxGeometry width="60" height="30" as="geometry"/>
                </mxCell>
                <mxCell id="88" value="" style="group" vertex="1" connectable="0" parent="1">
                    <mxGeometry x="-300.5" y="915" width="191" height="60" as="geometry"/>
                </mxCell>
                <mxCell id="89" value="" style="rounded=0;whiteSpace=wrap;html=1;" vertex="1" parent="88">
                    <mxGeometry y="30" width="190" height="30" as="geometry"/>
                </mxCell>
                <mxCell id="90" value="CPF" style="text;html=1;strokeColor=none;fillColor=none;align=left;verticalAlign=middle;whiteSpace=wrap;rounded=0;" vertex="1" parent="88">
                    <mxGeometry width="60" height="30" as="geometry"/>
                </mxCell>
                <mxCell id="91" value="Entrar" style="rounded=0;whiteSpace=wrap;html=1;fillColor=#EDEDED;fontColor=#000000;" vertex="1" parent="1">
                    <mxGeometry x="-300.5" y="1065" width="190" height="40" as="geometry"/>
                </mxCell>
                <mxCell id="92" value="Login" style="text;html=1;strokeColor=none;fillColor=none;align=left;verticalAlign=middle;whiteSpace=wrap;rounded=0;fontColor=#FFFFFF;fontStyle=1" vertex="1" parent="1">
                    <mxGeometry x="-300.5" y="870" width="110.5" height="30" as="geometry"/>
                </mxCell>
            </root>
        </mxGraphModel>
    </diagram>
</mxfile>